<mxfile host="app.diagrams.net" modified="2021-03-17T07:39:28.249Z" agent="5.0 (Windows NT 10.0; Win64; x64) AppleWebKit/537.36 (KHTML, like Gecko) Chrome/89.0.4389.82 Safari/537.36" etag="N4NoIpY-_BtYD1o7bgMk" version="14.4.8" type="github">
  <diagram id="8w8-ZPfoXoHIAV0TOxwf" name="Page-1">
    <mxGraphModel dx="2249" dy="762" grid="1" gridSize="10" guides="1" tooltips="1" connect="1" arrows="1" fold="1" page="1" pageScale="1" pageWidth="827" pageHeight="1169" math="0" shadow="0">
      <root>
        <mxCell id="0" />
        <mxCell id="1" parent="0" />
        <mxCell id="2zpapT4hPdr0nbo9WkEl-21" style="edgeStyle=orthogonalEdgeStyle;rounded=0;orthogonalLoop=1;jettySize=auto;html=1;" edge="1" parent="1" source="2zpapT4hPdr0nbo9WkEl-1" target="2zpapT4hPdr0nbo9WkEl-20">
          <mxGeometry relative="1" as="geometry" />
        </mxCell>
        <mxCell id="2zpapT4hPdr0nbo9WkEl-1" value="교수" style="rounded=0;whiteSpace=wrap;html=1;" vertex="1" parent="1">
          <mxGeometry x="-130" y="350" width="120" height="60" as="geometry" />
        </mxCell>
        <mxCell id="2zpapT4hPdr0nbo9WkEl-8" style="edgeStyle=orthogonalEdgeStyle;rounded=0;orthogonalLoop=1;jettySize=auto;html=1;entryX=0;entryY=0.25;entryDx=0;entryDy=0;" edge="1" parent="1" source="2zpapT4hPdr0nbo9WkEl-3" target="2zpapT4hPdr0nbo9WkEl-1">
          <mxGeometry relative="1" as="geometry" />
        </mxCell>
        <mxCell id="2zpapT4hPdr0nbo9WkEl-3" value="&lt;u&gt;교수번호&lt;/u&gt;" style="ellipse;whiteSpace=wrap;html=1;aspect=fixed;" vertex="1" parent="1">
          <mxGeometry x="-290" y="160" width="80" height="80" as="geometry" />
        </mxCell>
        <mxCell id="2zpapT4hPdr0nbo9WkEl-9" style="edgeStyle=orthogonalEdgeStyle;rounded=0;orthogonalLoop=1;jettySize=auto;html=1;" edge="1" parent="1" source="2zpapT4hPdr0nbo9WkEl-4" target="2zpapT4hPdr0nbo9WkEl-1">
          <mxGeometry relative="1" as="geometry" />
        </mxCell>
        <mxCell id="2zpapT4hPdr0nbo9WkEl-4" value="이름" style="ellipse;whiteSpace=wrap;html=1;aspect=fixed;" vertex="1" parent="1">
          <mxGeometry x="-110" y="160" width="80" height="80" as="geometry" />
        </mxCell>
        <mxCell id="2zpapT4hPdr0nbo9WkEl-10" style="edgeStyle=orthogonalEdgeStyle;rounded=0;orthogonalLoop=1;jettySize=auto;html=1;entryX=1;entryY=0.25;entryDx=0;entryDy=0;" edge="1" parent="1" source="2zpapT4hPdr0nbo9WkEl-5" target="2zpapT4hPdr0nbo9WkEl-1">
          <mxGeometry relative="1" as="geometry" />
        </mxCell>
        <mxCell id="2zpapT4hPdr0nbo9WkEl-5" value="학과" style="ellipse;whiteSpace=wrap;html=1;aspect=fixed;" vertex="1" parent="1">
          <mxGeometry x="90" y="160" width="80" height="80" as="geometry" />
        </mxCell>
        <mxCell id="2zpapT4hPdr0nbo9WkEl-22" style="edgeStyle=orthogonalEdgeStyle;rounded=0;orthogonalLoop=1;jettySize=auto;html=1;" edge="1" parent="1" source="2zpapT4hPdr0nbo9WkEl-11" target="2zpapT4hPdr0nbo9WkEl-20">
          <mxGeometry relative="1" as="geometry" />
        </mxCell>
        <mxCell id="2zpapT4hPdr0nbo9WkEl-11" value="과목" style="rounded=0;whiteSpace=wrap;html=1;" vertex="1" parent="1">
          <mxGeometry x="460" y="350" width="120" height="60" as="geometry" />
        </mxCell>
        <mxCell id="2zpapT4hPdr0nbo9WkEl-12" style="edgeStyle=orthogonalEdgeStyle;rounded=0;orthogonalLoop=1;jettySize=auto;html=1;entryX=0;entryY=0.25;entryDx=0;entryDy=0;" edge="1" source="2zpapT4hPdr0nbo9WkEl-13" target="2zpapT4hPdr0nbo9WkEl-11" parent="1">
          <mxGeometry relative="1" as="geometry" />
        </mxCell>
        <mxCell id="2zpapT4hPdr0nbo9WkEl-13" value="&lt;u&gt;과목번호&lt;/u&gt;" style="ellipse;whiteSpace=wrap;html=1;aspect=fixed;" vertex="1" parent="1">
          <mxGeometry x="300" y="160" width="80" height="80" as="geometry" />
        </mxCell>
        <mxCell id="2zpapT4hPdr0nbo9WkEl-14" style="edgeStyle=orthogonalEdgeStyle;rounded=0;orthogonalLoop=1;jettySize=auto;html=1;" edge="1" source="2zpapT4hPdr0nbo9WkEl-15" target="2zpapT4hPdr0nbo9WkEl-11" parent="1">
          <mxGeometry relative="1" as="geometry" />
        </mxCell>
        <mxCell id="2zpapT4hPdr0nbo9WkEl-15" value="과목이름" style="ellipse;whiteSpace=wrap;html=1;aspect=fixed;" vertex="1" parent="1">
          <mxGeometry x="480" y="160" width="80" height="80" as="geometry" />
        </mxCell>
        <mxCell id="2zpapT4hPdr0nbo9WkEl-16" style="edgeStyle=orthogonalEdgeStyle;rounded=0;orthogonalLoop=1;jettySize=auto;html=1;entryX=1;entryY=0.25;entryDx=0;entryDy=0;" edge="1" source="2zpapT4hPdr0nbo9WkEl-17" target="2zpapT4hPdr0nbo9WkEl-11" parent="1">
          <mxGeometry relative="1" as="geometry" />
        </mxCell>
        <mxCell id="2zpapT4hPdr0nbo9WkEl-17" value="학점" style="ellipse;whiteSpace=wrap;html=1;aspect=fixed;" vertex="1" parent="1">
          <mxGeometry x="680" y="160" width="80" height="80" as="geometry" />
        </mxCell>
        <mxCell id="2zpapT4hPdr0nbo9WkEl-20" value="강의" style="rhombus;whiteSpace=wrap;html=1;" vertex="1" parent="1">
          <mxGeometry x="200" y="350" width="80" height="80" as="geometry" />
        </mxCell>
        <mxCell id="2zpapT4hPdr0nbo9WkEl-23" style="edgeStyle=orthogonalEdgeStyle;rounded=0;orthogonalLoop=1;jettySize=auto;html=1;" edge="1" source="2zpapT4hPdr0nbo9WkEl-24" target="2zpapT4hPdr0nbo9WkEl-38" parent="1">
          <mxGeometry relative="1" as="geometry" />
        </mxCell>
        <mxCell id="2zpapT4hPdr0nbo9WkEl-24" value="교수" style="rounded=0;whiteSpace=wrap;html=1;" vertex="1" parent="1">
          <mxGeometry x="-140" y="660" width="120" height="60" as="geometry" />
        </mxCell>
        <mxCell id="2zpapT4hPdr0nbo9WkEl-25" style="edgeStyle=orthogonalEdgeStyle;rounded=0;orthogonalLoop=1;jettySize=auto;html=1;entryX=0;entryY=0.25;entryDx=0;entryDy=0;" edge="1" target="2zpapT4hPdr0nbo9WkEl-24" parent="1">
          <mxGeometry relative="1" as="geometry">
            <mxPoint x="-220" y="510" as="sourcePoint" />
          </mxGeometry>
        </mxCell>
        <mxCell id="2zpapT4hPdr0nbo9WkEl-26" style="edgeStyle=orthogonalEdgeStyle;rounded=0;orthogonalLoop=1;jettySize=auto;html=1;" edge="1" source="2zpapT4hPdr0nbo9WkEl-27" target="2zpapT4hPdr0nbo9WkEl-24" parent="1">
          <mxGeometry relative="1" as="geometry" />
        </mxCell>
        <mxCell id="2zpapT4hPdr0nbo9WkEl-27" value="이름" style="ellipse;whiteSpace=wrap;html=1;aspect=fixed;" vertex="1" parent="1">
          <mxGeometry x="-120" y="470" width="80" height="80" as="geometry" />
        </mxCell>
        <mxCell id="2zpapT4hPdr0nbo9WkEl-28" style="edgeStyle=orthogonalEdgeStyle;rounded=0;orthogonalLoop=1;jettySize=auto;html=1;entryX=1;entryY=0.25;entryDx=0;entryDy=0;" edge="1" source="2zpapT4hPdr0nbo9WkEl-29" target="2zpapT4hPdr0nbo9WkEl-24" parent="1">
          <mxGeometry relative="1" as="geometry" />
        </mxCell>
        <mxCell id="2zpapT4hPdr0nbo9WkEl-29" value="학과" style="ellipse;whiteSpace=wrap;html=1;aspect=fixed;" vertex="1" parent="1">
          <mxGeometry x="80" y="470" width="80" height="80" as="geometry" />
        </mxCell>
        <mxCell id="2zpapT4hPdr0nbo9WkEl-30" style="edgeStyle=orthogonalEdgeStyle;rounded=0;orthogonalLoop=1;jettySize=auto;html=1;" edge="1" source="2zpapT4hPdr0nbo9WkEl-31" target="2zpapT4hPdr0nbo9WkEl-38" parent="1">
          <mxGeometry relative="1" as="geometry" />
        </mxCell>
        <mxCell id="2zpapT4hPdr0nbo9WkEl-31" value="학생" style="rounded=0;whiteSpace=wrap;html=1;" vertex="1" parent="1">
          <mxGeometry x="450" y="660" width="120" height="60" as="geometry" />
        </mxCell>
        <mxCell id="2zpapT4hPdr0nbo9WkEl-32" style="edgeStyle=orthogonalEdgeStyle;rounded=0;orthogonalLoop=1;jettySize=auto;html=1;entryX=0;entryY=0.25;entryDx=0;entryDy=0;" edge="1" source="2zpapT4hPdr0nbo9WkEl-33" target="2zpapT4hPdr0nbo9WkEl-31" parent="1">
          <mxGeometry relative="1" as="geometry" />
        </mxCell>
        <mxCell id="2zpapT4hPdr0nbo9WkEl-33" value="&lt;u&gt;교수번호&lt;/u&gt;" style="ellipse;whiteSpace=wrap;html=1;aspect=fixed;" vertex="1" parent="1">
          <mxGeometry x="290" y="470" width="80" height="80" as="geometry" />
        </mxCell>
        <mxCell id="2zpapT4hPdr0nbo9WkEl-34" style="edgeStyle=orthogonalEdgeStyle;rounded=0;orthogonalLoop=1;jettySize=auto;html=1;" edge="1" source="2zpapT4hPdr0nbo9WkEl-35" target="2zpapT4hPdr0nbo9WkEl-31" parent="1">
          <mxGeometry relative="1" as="geometry" />
        </mxCell>
        <mxCell id="2zpapT4hPdr0nbo9WkEl-35" value="이름" style="ellipse;whiteSpace=wrap;html=1;aspect=fixed;" vertex="1" parent="1">
          <mxGeometry x="470" y="470" width="80" height="80" as="geometry" />
        </mxCell>
        <mxCell id="2zpapT4hPdr0nbo9WkEl-36" style="edgeStyle=orthogonalEdgeStyle;rounded=0;orthogonalLoop=1;jettySize=auto;html=1;entryX=1;entryY=0.25;entryDx=0;entryDy=0;" edge="1" source="2zpapT4hPdr0nbo9WkEl-37" target="2zpapT4hPdr0nbo9WkEl-31" parent="1">
          <mxGeometry relative="1" as="geometry" />
        </mxCell>
        <mxCell id="2zpapT4hPdr0nbo9WkEl-37" value="학과" style="ellipse;whiteSpace=wrap;html=1;aspect=fixed;" vertex="1" parent="1">
          <mxGeometry x="670" y="470" width="80" height="80" as="geometry" />
        </mxCell>
        <mxCell id="2zpapT4hPdr0nbo9WkEl-38" value="지도" style="rhombus;whiteSpace=wrap;html=1;" vertex="1" parent="1">
          <mxGeometry x="190" y="660" width="80" height="80" as="geometry" />
        </mxCell>
        <mxCell id="2zpapT4hPdr0nbo9WkEl-39" value="&lt;u&gt;교수번호&lt;/u&gt;" style="ellipse;whiteSpace=wrap;html=1;aspect=fixed;" vertex="1" parent="1">
          <mxGeometry x="-300" y="470" width="80" height="80" as="geometry" />
        </mxCell>
        <mxCell id="2zpapT4hPdr0nbo9WkEl-40" style="edgeStyle=orthogonalEdgeStyle;rounded=0;orthogonalLoop=1;jettySize=auto;html=1;" edge="1" source="2zpapT4hPdr0nbo9WkEl-41" target="2zpapT4hPdr0nbo9WkEl-55" parent="1">
          <mxGeometry relative="1" as="geometry" />
        </mxCell>
        <mxCell id="2zpapT4hPdr0nbo9WkEl-41" value="과목" style="rounded=0;whiteSpace=wrap;html=1;" vertex="1" parent="1">
          <mxGeometry x="-150" y="970" width="120" height="60" as="geometry" />
        </mxCell>
        <mxCell id="2zpapT4hPdr0nbo9WkEl-42" style="edgeStyle=orthogonalEdgeStyle;rounded=0;orthogonalLoop=1;jettySize=auto;html=1;entryX=0;entryY=0.25;entryDx=0;entryDy=0;" edge="1" target="2zpapT4hPdr0nbo9WkEl-41" parent="1">
          <mxGeometry relative="1" as="geometry">
            <mxPoint x="-230" y="820" as="sourcePoint" />
          </mxGeometry>
        </mxCell>
        <mxCell id="2zpapT4hPdr0nbo9WkEl-43" style="edgeStyle=orthogonalEdgeStyle;rounded=0;orthogonalLoop=1;jettySize=auto;html=1;" edge="1" source="2zpapT4hPdr0nbo9WkEl-44" target="2zpapT4hPdr0nbo9WkEl-41" parent="1">
          <mxGeometry relative="1" as="geometry" />
        </mxCell>
        <mxCell id="2zpapT4hPdr0nbo9WkEl-44" value="과목이름" style="ellipse;whiteSpace=wrap;html=1;aspect=fixed;" vertex="1" parent="1">
          <mxGeometry x="-130" y="780" width="80" height="80" as="geometry" />
        </mxCell>
        <mxCell id="2zpapT4hPdr0nbo9WkEl-45" style="edgeStyle=orthogonalEdgeStyle;rounded=0;orthogonalLoop=1;jettySize=auto;html=1;entryX=1;entryY=0.25;entryDx=0;entryDy=0;" edge="1" source="2zpapT4hPdr0nbo9WkEl-46" target="2zpapT4hPdr0nbo9WkEl-41" parent="1">
          <mxGeometry relative="1" as="geometry" />
        </mxCell>
        <mxCell id="2zpapT4hPdr0nbo9WkEl-46" value="학점" style="ellipse;whiteSpace=wrap;html=1;aspect=fixed;" vertex="1" parent="1">
          <mxGeometry x="70" y="780" width="80" height="80" as="geometry" />
        </mxCell>
        <mxCell id="2zpapT4hPdr0nbo9WkEl-47" style="edgeStyle=orthogonalEdgeStyle;rounded=0;orthogonalLoop=1;jettySize=auto;html=1;" edge="1" source="2zpapT4hPdr0nbo9WkEl-48" target="2zpapT4hPdr0nbo9WkEl-55" parent="1">
          <mxGeometry relative="1" as="geometry" />
        </mxCell>
        <mxCell id="2zpapT4hPdr0nbo9WkEl-48" value="학생" style="rounded=0;whiteSpace=wrap;html=1;" vertex="1" parent="1">
          <mxGeometry x="440" y="970" width="120" height="60" as="geometry" />
        </mxCell>
        <mxCell id="2zpapT4hPdr0nbo9WkEl-49" style="edgeStyle=orthogonalEdgeStyle;rounded=0;orthogonalLoop=1;jettySize=auto;html=1;entryX=0;entryY=0.25;entryDx=0;entryDy=0;" edge="1" source="2zpapT4hPdr0nbo9WkEl-50" target="2zpapT4hPdr0nbo9WkEl-48" parent="1">
          <mxGeometry relative="1" as="geometry" />
        </mxCell>
        <mxCell id="2zpapT4hPdr0nbo9WkEl-50" value="&lt;u&gt;학번&lt;/u&gt;" style="ellipse;whiteSpace=wrap;html=1;aspect=fixed;" vertex="1" parent="1">
          <mxGeometry x="280" y="780" width="80" height="80" as="geometry" />
        </mxCell>
        <mxCell id="2zpapT4hPdr0nbo9WkEl-51" style="edgeStyle=orthogonalEdgeStyle;rounded=0;orthogonalLoop=1;jettySize=auto;html=1;" edge="1" source="2zpapT4hPdr0nbo9WkEl-52" target="2zpapT4hPdr0nbo9WkEl-48" parent="1">
          <mxGeometry relative="1" as="geometry" />
        </mxCell>
        <mxCell id="2zpapT4hPdr0nbo9WkEl-52" value="이름" style="ellipse;whiteSpace=wrap;html=1;aspect=fixed;" vertex="1" parent="1">
          <mxGeometry x="460" y="780" width="80" height="80" as="geometry" />
        </mxCell>
        <mxCell id="2zpapT4hPdr0nbo9WkEl-53" style="edgeStyle=orthogonalEdgeStyle;rounded=0;orthogonalLoop=1;jettySize=auto;html=1;entryX=1;entryY=0.25;entryDx=0;entryDy=0;" edge="1" source="2zpapT4hPdr0nbo9WkEl-54" target="2zpapT4hPdr0nbo9WkEl-48" parent="1">
          <mxGeometry relative="1" as="geometry" />
        </mxCell>
        <mxCell id="2zpapT4hPdr0nbo9WkEl-54" value="학과" style="ellipse;whiteSpace=wrap;html=1;aspect=fixed;" vertex="1" parent="1">
          <mxGeometry x="660" y="780" width="80" height="80" as="geometry" />
        </mxCell>
        <mxCell id="2zpapT4hPdr0nbo9WkEl-55" value="등록" style="rhombus;whiteSpace=wrap;html=1;" vertex="1" parent="1">
          <mxGeometry x="180" y="970" width="80" height="80" as="geometry" />
        </mxCell>
        <mxCell id="2zpapT4hPdr0nbo9WkEl-56" value="&lt;u&gt;과목번호&lt;/u&gt;" style="ellipse;whiteSpace=wrap;html=1;aspect=fixed;" vertex="1" parent="1">
          <mxGeometry x="-310" y="780" width="80" height="80" as="geometry" />
        </mxCell>
        <mxCell id="2zpapT4hPdr0nbo9WkEl-57" value="m" style="text;html=1;strokeColor=none;fillColor=none;align=center;verticalAlign=middle;whiteSpace=wrap;rounded=0;" vertex="1" parent="1">
          <mxGeometry x="-10" y="1020" width="40" height="20" as="geometry" />
        </mxCell>
        <mxCell id="2zpapT4hPdr0nbo9WkEl-58" value="n" style="text;html=1;strokeColor=none;fillColor=none;align=center;verticalAlign=middle;whiteSpace=wrap;rounded=0;" vertex="1" parent="1">
          <mxGeometry x="394" y="1030" width="40" height="20" as="geometry" />
        </mxCell>
        <mxCell id="2zpapT4hPdr0nbo9WkEl-59" value="1" style="text;html=1;strokeColor=none;fillColor=none;align=center;verticalAlign=middle;whiteSpace=wrap;rounded=0;" vertex="1" parent="1">
          <mxGeometry y="700" width="40" height="20" as="geometry" />
        </mxCell>
        <mxCell id="2zpapT4hPdr0nbo9WkEl-60" value="n" style="text;html=1;strokeColor=none;fillColor=none;align=center;verticalAlign=middle;whiteSpace=wrap;rounded=0;" vertex="1" parent="1">
          <mxGeometry x="400" y="700" width="40" height="20" as="geometry" />
        </mxCell>
        <mxCell id="2zpapT4hPdr0nbo9WkEl-61" value="1" style="text;html=1;strokeColor=none;fillColor=none;align=center;verticalAlign=middle;whiteSpace=wrap;rounded=0;" vertex="1" parent="1">
          <mxGeometry y="390" width="40" height="20" as="geometry" />
        </mxCell>
        <mxCell id="2zpapT4hPdr0nbo9WkEl-62" value="1" style="text;html=1;strokeColor=none;fillColor=none;align=center;verticalAlign=middle;whiteSpace=wrap;rounded=0;" vertex="1" parent="1">
          <mxGeometry x="414" y="390" width="40" height="20" as="geometry" />
        </mxCell>
        <mxCell id="2zpapT4hPdr0nbo9WkEl-68" value="" style="edgeStyle=orthogonalEdgeStyle;rounded=0;orthogonalLoop=1;jettySize=auto;html=1;" edge="1" parent="1" source="2zpapT4hPdr0nbo9WkEl-64" target="2zpapT4hPdr0nbo9WkEl-65">
          <mxGeometry relative="1" as="geometry" />
        </mxCell>
        <mxCell id="2zpapT4hPdr0nbo9WkEl-64" value="사람" style="rounded=0;whiteSpace=wrap;html=1;" vertex="1" parent="1">
          <mxGeometry x="100" y="1100" width="120" height="60" as="geometry" />
        </mxCell>
        <mxCell id="2zpapT4hPdr0nbo9WkEl-70" style="edgeStyle=orthogonalEdgeStyle;rounded=0;orthogonalLoop=1;jettySize=auto;html=1;" edge="1" parent="1" source="2zpapT4hPdr0nbo9WkEl-65" target="2zpapT4hPdr0nbo9WkEl-67">
          <mxGeometry relative="1" as="geometry" />
        </mxCell>
        <mxCell id="2zpapT4hPdr0nbo9WkEl-71" style="edgeStyle=orthogonalEdgeStyle;rounded=0;orthogonalLoop=1;jettySize=auto;html=1;" edge="1" parent="1" source="2zpapT4hPdr0nbo9WkEl-65">
          <mxGeometry relative="1" as="geometry">
            <mxPoint x="60" y="1320" as="targetPoint" />
          </mxGeometry>
        </mxCell>
        <mxCell id="2zpapT4hPdr0nbo9WkEl-65" value="isa" style="triangle;whiteSpace=wrap;html=1;rotation=90;" vertex="1" parent="1">
          <mxGeometry x="130" y="1190" width="60" height="80" as="geometry" />
        </mxCell>
        <mxCell id="2zpapT4hPdr0nbo9WkEl-66" value="성인" style="rounded=0;whiteSpace=wrap;html=1;" vertex="1" parent="1">
          <mxGeometry y="1330" width="120" height="60" as="geometry" />
        </mxCell>
        <mxCell id="2zpapT4hPdr0nbo9WkEl-67" value="청소년" style="rounded=0;whiteSpace=wrap;html=1;" vertex="1" parent="1">
          <mxGeometry x="220" y="1330" width="120" height="60" as="geometry" />
        </mxCell>
        <mxCell id="2zpapT4hPdr0nbo9WkEl-72" value="은행지점" style="rounded=0;whiteSpace=wrap;html=1;" vertex="1" parent="1">
          <mxGeometry x="-210" y="2180" width="120" height="60" as="geometry" />
        </mxCell>
        <mxCell id="2zpapT4hPdr0nbo9WkEl-73" value="고객" style="rounded=0;whiteSpace=wrap;html=1;" vertex="1" parent="1">
          <mxGeometry x="500" y="2180" width="120" height="60" as="geometry" />
        </mxCell>
        <mxCell id="2zpapT4hPdr0nbo9WkEl-74" value="&lt;u&gt;지점명&lt;/u&gt;" style="ellipse;whiteSpace=wrap;html=1;aspect=fixed;" vertex="1" parent="1">
          <mxGeometry x="-310" y="2080" width="50" height="50" as="geometry" />
        </mxCell>
        <mxCell id="2zpapT4hPdr0nbo9WkEl-75" value="도시" style="ellipse;whiteSpace=wrap;html=1;aspect=fixed;" vertex="1" parent="1">
          <mxGeometry x="-240" y="2080" width="50" height="50" as="geometry" />
        </mxCell>
        <mxCell id="2zpapT4hPdr0nbo9WkEl-76" value="자산" style="ellipse;whiteSpace=wrap;html=1;aspect=fixed;" vertex="1" parent="1">
          <mxGeometry x="-180" y="2080" width="50" height="50" as="geometry" />
        </mxCell>
        <mxCell id="2zpapT4hPdr0nbo9WkEl-77" value="영문지점명" style="ellipse;whiteSpace=wrap;html=1;aspect=fixed;" vertex="1" parent="1">
          <mxGeometry x="-120" y="2080" width="50" height="50" as="geometry" />
        </mxCell>
        <mxCell id="2zpapT4hPdr0nbo9WkEl-78" value="개설일" style="ellipse;whiteSpace=wrap;html=1;aspect=fixed;" vertex="1" parent="1">
          <mxGeometry x="-60" y="2080" width="50" height="50" as="geometry" />
        </mxCell>
        <mxCell id="2zpapT4hPdr0nbo9WkEl-79" value="전화번호" style="ellipse;whiteSpace=wrap;html=1;aspect=fixed;" vertex="1" parent="1">
          <mxGeometry y="2080" width="50" height="50" as="geometry" />
        </mxCell>
        <mxCell id="2zpapT4hPdr0nbo9WkEl-90" value="" style="endArrow=none;html=1;exitX=0.583;exitY=0;exitDx=0;exitDy=0;exitPerimeter=0;" edge="1" parent="1" source="2zpapT4hPdr0nbo9WkEl-72">
          <mxGeometry width="50" height="50" relative="1" as="geometry">
            <mxPoint x="-195" y="2170" as="sourcePoint" />
            <mxPoint x="-155" y="2131" as="targetPoint" />
          </mxGeometry>
        </mxCell>
        <mxCell id="2zpapT4hPdr0nbo9WkEl-93" value="" style="endArrow=none;html=1;exitX=0.583;exitY=0;exitDx=0;exitDy=0;exitPerimeter=0;entryX=0.5;entryY=1;entryDx=0;entryDy=0;" edge="1" parent="1" source="2zpapT4hPdr0nbo9WkEl-72" target="2zpapT4hPdr0nbo9WkEl-77">
          <mxGeometry width="50" height="50" relative="1" as="geometry">
            <mxPoint x="-195" y="2170" as="sourcePoint" />
            <mxPoint x="-155" y="2131" as="targetPoint" />
          </mxGeometry>
        </mxCell>
        <mxCell id="2zpapT4hPdr0nbo9WkEl-94" value="" style="endArrow=none;html=1;exitX=0.583;exitY=0;exitDx=0;exitDy=0;exitPerimeter=0;entryX=0.2;entryY=1;entryDx=0;entryDy=0;entryPerimeter=0;" edge="1" parent="1" source="2zpapT4hPdr0nbo9WkEl-72" target="2zpapT4hPdr0nbo9WkEl-78">
          <mxGeometry width="50" height="50" relative="1" as="geometry">
            <mxPoint x="-195" y="2170" as="sourcePoint" />
            <mxPoint x="-155" y="2131" as="targetPoint" />
          </mxGeometry>
        </mxCell>
        <mxCell id="2zpapT4hPdr0nbo9WkEl-95" value="" style="endArrow=none;html=1;exitX=0.583;exitY=0;exitDx=0;exitDy=0;exitPerimeter=0;entryX=0;entryY=1;entryDx=0;entryDy=0;" edge="1" parent="1" source="2zpapT4hPdr0nbo9WkEl-72" target="2zpapT4hPdr0nbo9WkEl-79">
          <mxGeometry width="50" height="50" relative="1" as="geometry">
            <mxPoint x="-195" y="2170" as="sourcePoint" />
            <mxPoint x="-155" y="2131" as="targetPoint" />
          </mxGeometry>
        </mxCell>
        <mxCell id="2zpapT4hPdr0nbo9WkEl-96" value="" style="endArrow=none;html=1;exitX=0.583;exitY=0;exitDx=0;exitDy=0;exitPerimeter=0;entryX=1;entryY=1;entryDx=0;entryDy=0;" edge="1" parent="1" source="2zpapT4hPdr0nbo9WkEl-72" target="2zpapT4hPdr0nbo9WkEl-75">
          <mxGeometry width="50" height="50" relative="1" as="geometry">
            <mxPoint x="-195" y="2170" as="sourcePoint" />
            <mxPoint x="-155" y="2131" as="targetPoint" />
          </mxGeometry>
        </mxCell>
        <mxCell id="2zpapT4hPdr0nbo9WkEl-97" value="" style="endArrow=none;html=1;exitX=0.583;exitY=0;exitDx=0;exitDy=0;exitPerimeter=0;entryX=1;entryY=1;entryDx=0;entryDy=0;" edge="1" parent="1" source="2zpapT4hPdr0nbo9WkEl-72" target="2zpapT4hPdr0nbo9WkEl-74">
          <mxGeometry width="50" height="50" relative="1" as="geometry">
            <mxPoint x="-195" y="2170" as="sourcePoint" />
            <mxPoint x="-155" y="2131" as="targetPoint" />
          </mxGeometry>
        </mxCell>
        <mxCell id="2zpapT4hPdr0nbo9WkEl-98" value="&lt;u&gt;고객번호&lt;/u&gt;" style="ellipse;whiteSpace=wrap;html=1;aspect=fixed;" vertex="1" parent="1">
          <mxGeometry x="440" y="2100" width="50" height="50" as="geometry" />
        </mxCell>
        <mxCell id="2zpapT4hPdr0nbo9WkEl-99" value="이름" style="ellipse;whiteSpace=wrap;html=1;aspect=fixed;" vertex="1" parent="1">
          <mxGeometry x="500" y="2100" width="50" height="50" as="geometry" />
        </mxCell>
        <mxCell id="2zpapT4hPdr0nbo9WkEl-100" value="주소" style="ellipse;whiteSpace=wrap;html=1;aspect=fixed;" vertex="1" parent="1">
          <mxGeometry x="570" y="2100" width="50" height="50" as="geometry" />
        </mxCell>
        <mxCell id="2zpapT4hPdr0nbo9WkEl-101" value="생년월일" style="ellipse;whiteSpace=wrap;html=1;aspect=fixed;" vertex="1" parent="1">
          <mxGeometry x="630" y="2100" width="50" height="50" as="geometry" />
        </mxCell>
        <mxCell id="2zpapT4hPdr0nbo9WkEl-104" value="" style="endArrow=none;html=1;exitX=0.633;exitY=-0.017;exitDx=0;exitDy=0;exitPerimeter=0;" edge="1" parent="1" source="2zpapT4hPdr0nbo9WkEl-73">
          <mxGeometry width="50" height="50" relative="1" as="geometry">
            <mxPoint x="567.82" y="2193.56" as="sourcePoint" />
            <mxPoint x="590" y="2150" as="targetPoint" />
          </mxGeometry>
        </mxCell>
        <mxCell id="2zpapT4hPdr0nbo9WkEl-105" value="" style="endArrow=none;html=1;exitX=0.633;exitY=-0.017;exitDx=0;exitDy=0;exitPerimeter=0;entryX=0.86;entryY=1;entryDx=0;entryDy=0;entryPerimeter=0;" edge="1" parent="1" source="2zpapT4hPdr0nbo9WkEl-73" target="2zpapT4hPdr0nbo9WkEl-99">
          <mxGeometry width="50" height="50" relative="1" as="geometry">
            <mxPoint x="567.82" y="2193.56" as="sourcePoint" />
            <mxPoint x="590" y="2150" as="targetPoint" />
          </mxGeometry>
        </mxCell>
        <mxCell id="2zpapT4hPdr0nbo9WkEl-106" value="" style="endArrow=none;html=1;exitX=0.633;exitY=-0.017;exitDx=0;exitDy=0;exitPerimeter=0;entryX=1;entryY=1;entryDx=0;entryDy=0;" edge="1" parent="1" source="2zpapT4hPdr0nbo9WkEl-73" target="2zpapT4hPdr0nbo9WkEl-98">
          <mxGeometry width="50" height="50" relative="1" as="geometry">
            <mxPoint x="567.82" y="2193.56" as="sourcePoint" />
            <mxPoint x="590" y="2150" as="targetPoint" />
          </mxGeometry>
        </mxCell>
        <mxCell id="2zpapT4hPdr0nbo9WkEl-107" value="" style="endArrow=none;html=1;exitX=0.633;exitY=-0.017;exitDx=0;exitDy=0;exitPerimeter=0;entryX=0.24;entryY=1;entryDx=0;entryDy=0;entryPerimeter=0;" edge="1" parent="1" source="2zpapT4hPdr0nbo9WkEl-73" target="2zpapT4hPdr0nbo9WkEl-101">
          <mxGeometry width="50" height="50" relative="1" as="geometry">
            <mxPoint x="567.82" y="2193.56" as="sourcePoint" />
            <mxPoint x="590" y="2150" as="targetPoint" />
          </mxGeometry>
        </mxCell>
        <mxCell id="2zpapT4hPdr0nbo9WkEl-114" style="edgeStyle=orthogonalEdgeStyle;rounded=0;orthogonalLoop=1;jettySize=auto;html=1;" edge="1" parent="1" source="2zpapT4hPdr0nbo9WkEl-108" target="2zpapT4hPdr0nbo9WkEl-72">
          <mxGeometry relative="1" as="geometry" />
        </mxCell>
        <mxCell id="2zpapT4hPdr0nbo9WkEl-131" style="edgeStyle=orthogonalEdgeStyle;rounded=0;orthogonalLoop=1;jettySize=auto;html=1;" edge="1" parent="1" source="2zpapT4hPdr0nbo9WkEl-108" target="2zpapT4hPdr0nbo9WkEl-118">
          <mxGeometry relative="1" as="geometry" />
        </mxCell>
        <mxCell id="2zpapT4hPdr0nbo9WkEl-108" value="서비스" style="rhombus;whiteSpace=wrap;html=1;" vertex="1" parent="1">
          <mxGeometry x="15" y="2160" width="80" height="80" as="geometry" />
        </mxCell>
        <mxCell id="2zpapT4hPdr0nbo9WkEl-115" value="1" style="text;html=1;strokeColor=none;fillColor=none;align=center;verticalAlign=middle;whiteSpace=wrap;rounded=0;" vertex="1" parent="1">
          <mxGeometry x="-90" y="2220" width="40" height="20" as="geometry" />
        </mxCell>
        <mxCell id="2zpapT4hPdr0nbo9WkEl-116" value="n" style="text;html=1;strokeColor=none;fillColor=none;align=center;verticalAlign=middle;whiteSpace=wrap;rounded=0;" vertex="1" parent="1">
          <mxGeometry x="140" y="2220" width="10" height="20" as="geometry" />
        </mxCell>
        <mxCell id="2zpapT4hPdr0nbo9WkEl-117" value="m" style="text;html=1;strokeColor=none;fillColor=none;align=center;verticalAlign=middle;whiteSpace=wrap;rounded=0;" vertex="1" parent="1">
          <mxGeometry x="450" y="2220" width="40" height="20" as="geometry" />
        </mxCell>
        <mxCell id="2zpapT4hPdr0nbo9WkEl-118" value="예금계좌" style="rounded=0;whiteSpace=wrap;html=1;" vertex="1" parent="1">
          <mxGeometry x="160" y="2180" width="120" height="60" as="geometry" />
        </mxCell>
        <mxCell id="2zpapT4hPdr0nbo9WkEl-119" value="&lt;u&gt;예금번호&lt;/u&gt;" style="ellipse;whiteSpace=wrap;html=1;aspect=fixed;" vertex="1" parent="1">
          <mxGeometry x="120" y="2100" width="50" height="50" as="geometry" />
        </mxCell>
        <mxCell id="2zpapT4hPdr0nbo9WkEl-120" value="잔고" style="ellipse;whiteSpace=wrap;html=1;aspect=fixed;" vertex="1" parent="1">
          <mxGeometry x="190" y="2100" width="50" height="50" as="geometry" />
        </mxCell>
        <mxCell id="2zpapT4hPdr0nbo9WkEl-121" value="입출금내역" style="ellipse;whiteSpace=wrap;html=1;aspect=fixed;" vertex="1" parent="1">
          <mxGeometry x="260" y="2100" width="50" height="50" as="geometry" />
        </mxCell>
        <mxCell id="2zpapT4hPdr0nbo9WkEl-123" value="" style="endArrow=none;html=1;exitX=0.633;exitY=-0.017;exitDx=0;exitDy=0;exitPerimeter=0;entryX=0.5;entryY=1;entryDx=0;entryDy=0;" edge="1" source="2zpapT4hPdr0nbo9WkEl-118" parent="1">
          <mxGeometry width="50" height="50" relative="1" as="geometry">
            <mxPoint x="227.82000000000005" y="2193.56" as="sourcePoint" />
            <mxPoint x="275" y="2150" as="targetPoint" />
          </mxGeometry>
        </mxCell>
        <mxCell id="2zpapT4hPdr0nbo9WkEl-124" value="" style="endArrow=none;html=1;exitX=0.633;exitY=-0.017;exitDx=0;exitDy=0;exitPerimeter=0;entryX=0.86;entryY=1;entryDx=0;entryDy=0;entryPerimeter=0;" edge="1" source="2zpapT4hPdr0nbo9WkEl-118" target="2zpapT4hPdr0nbo9WkEl-120" parent="1">
          <mxGeometry width="50" height="50" relative="1" as="geometry">
            <mxPoint x="227.82000000000005" y="2193.56" as="sourcePoint" />
            <mxPoint x="250" y="2150" as="targetPoint" />
          </mxGeometry>
        </mxCell>
        <mxCell id="2zpapT4hPdr0nbo9WkEl-125" value="" style="endArrow=none;html=1;exitX=0.633;exitY=-0.017;exitDx=0;exitDy=0;exitPerimeter=0;entryX=1;entryY=1;entryDx=0;entryDy=0;" edge="1" source="2zpapT4hPdr0nbo9WkEl-118" target="2zpapT4hPdr0nbo9WkEl-119" parent="1">
          <mxGeometry width="50" height="50" relative="1" as="geometry">
            <mxPoint x="227.82000000000005" y="2193.56" as="sourcePoint" />
            <mxPoint x="250" y="2150" as="targetPoint" />
          </mxGeometry>
        </mxCell>
        <mxCell id="2zpapT4hPdr0nbo9WkEl-133" style="edgeStyle=orthogonalEdgeStyle;rounded=0;orthogonalLoop=1;jettySize=auto;html=1;entryX=1;entryY=0.5;entryDx=0;entryDy=0;" edge="1" parent="1" source="2zpapT4hPdr0nbo9WkEl-132" target="2zpapT4hPdr0nbo9WkEl-118">
          <mxGeometry relative="1" as="geometry" />
        </mxCell>
        <mxCell id="2zpapT4hPdr0nbo9WkEl-134" style="edgeStyle=orthogonalEdgeStyle;rounded=0;orthogonalLoop=1;jettySize=auto;html=1;" edge="1" parent="1" source="2zpapT4hPdr0nbo9WkEl-132" target="2zpapT4hPdr0nbo9WkEl-73">
          <mxGeometry relative="1" as="geometry" />
        </mxCell>
        <mxCell id="2zpapT4hPdr0nbo9WkEl-132" value="예금" style="rhombus;whiteSpace=wrap;html=1;" vertex="1" parent="1">
          <mxGeometry x="340" y="2170" width="80" height="80" as="geometry" />
        </mxCell>
        <mxCell id="2zpapT4hPdr0nbo9WkEl-135" value="n" style="text;html=1;strokeColor=none;fillColor=none;align=center;verticalAlign=middle;whiteSpace=wrap;rounded=0;" vertex="1" parent="1">
          <mxGeometry x="300" y="2220" width="10" height="20" as="geometry" />
        </mxCell>
        <mxCell id="2zpapT4hPdr0nbo9WkEl-136" value="지점" style="whiteSpace=wrap;html=1;aspect=fixed;" vertex="1" parent="1">
          <mxGeometry x="-170" y="1694" width="60" height="60" as="geometry" />
        </mxCell>
        <mxCell id="2zpapT4hPdr0nbo9WkEl-137" value="&lt;u&gt;지점명&lt;/u&gt;" style="ellipse;whiteSpace=wrap;html=1;aspect=fixed;" vertex="1" parent="1">
          <mxGeometry x="-320" y="1600" width="60" height="60" as="geometry" />
        </mxCell>
        <mxCell id="2zpapT4hPdr0nbo9WkEl-138" value="도시" style="ellipse;whiteSpace=wrap;html=1;aspect=fixed;" vertex="1" parent="1">
          <mxGeometry x="-250" y="1600" width="60" height="60" as="geometry" />
        </mxCell>
        <mxCell id="2zpapT4hPdr0nbo9WkEl-139" value="자산" style="ellipse;whiteSpace=wrap;html=1;aspect=fixed;" vertex="1" parent="1">
          <mxGeometry x="-180" y="1600" width="60" height="60" as="geometry" />
        </mxCell>
        <mxCell id="2zpapT4hPdr0nbo9WkEl-140" value="영문지점명" style="ellipse;whiteSpace=wrap;html=1;aspect=fixed;" vertex="1" parent="1">
          <mxGeometry x="-110" y="1600" width="60" height="60" as="geometry" />
        </mxCell>
        <mxCell id="2zpapT4hPdr0nbo9WkEl-141" value="지점개설일" style="ellipse;whiteSpace=wrap;html=1;aspect=fixed;" vertex="1" parent="1">
          <mxGeometry x="-40" y="1600" width="60" height="60" as="geometry" />
        </mxCell>
        <mxCell id="2zpapT4hPdr0nbo9WkEl-142" value="전화번호" style="ellipse;whiteSpace=wrap;html=1;aspect=fixed;" vertex="1" parent="1">
          <mxGeometry x="30" y="1600" width="60" height="60" as="geometry" />
        </mxCell>
        <mxCell id="2zpapT4hPdr0nbo9WkEl-143" value="" style="endArrow=none;html=1;entryX=0.5;entryY=1;entryDx=0;entryDy=0;exitX=0.5;exitY=0;exitDx=0;exitDy=0;" edge="1" parent="1" target="2zpapT4hPdr0nbo9WkEl-139">
          <mxGeometry width="50" height="50" relative="1" as="geometry">
            <mxPoint x="-140" y="1694" as="sourcePoint" />
            <mxPoint x="-110" y="1650" as="targetPoint" />
          </mxGeometry>
        </mxCell>
        <mxCell id="2zpapT4hPdr0nbo9WkEl-144" value="" style="endArrow=none;html=1;exitX=0.5;exitY=0;exitDx=0;exitDy=0;" edge="1" parent="1" target="2zpapT4hPdr0nbo9WkEl-140">
          <mxGeometry width="50" height="50" relative="1" as="geometry">
            <mxPoint x="-140" y="1694" as="sourcePoint" />
            <mxPoint x="-110" y="1650" as="targetPoint" />
          </mxGeometry>
        </mxCell>
        <mxCell id="2zpapT4hPdr0nbo9WkEl-145" value="" style="endArrow=none;html=1;exitX=0.5;exitY=0;exitDx=0;exitDy=0;entryX=0.217;entryY=0.967;entryDx=0;entryDy=0;entryPerimeter=0;" edge="1" parent="1" target="2zpapT4hPdr0nbo9WkEl-141">
          <mxGeometry width="50" height="50" relative="1" as="geometry">
            <mxPoint x="-140" y="1694" as="sourcePoint" />
            <mxPoint x="-110" y="1650" as="targetPoint" />
          </mxGeometry>
        </mxCell>
        <mxCell id="2zpapT4hPdr0nbo9WkEl-146" value="" style="endArrow=none;html=1;exitX=0.5;exitY=0;exitDx=0;exitDy=0;entryX=0.2;entryY=0.967;entryDx=0;entryDy=0;entryPerimeter=0;" edge="1" parent="1" target="2zpapT4hPdr0nbo9WkEl-142">
          <mxGeometry width="50" height="50" relative="1" as="geometry">
            <mxPoint x="-140" y="1694" as="sourcePoint" />
            <mxPoint x="-110" y="1650" as="targetPoint" />
          </mxGeometry>
        </mxCell>
        <mxCell id="2zpapT4hPdr0nbo9WkEl-147" value="" style="endArrow=none;html=1;entryX=1;entryY=1;entryDx=0;entryDy=0;exitX=0.5;exitY=0;exitDx=0;exitDy=0;" edge="1" parent="1" target="2zpapT4hPdr0nbo9WkEl-138">
          <mxGeometry width="50" height="50" relative="1" as="geometry">
            <mxPoint x="-140" y="1694" as="sourcePoint" />
            <mxPoint x="-110" y="1650" as="targetPoint" />
          </mxGeometry>
        </mxCell>
        <mxCell id="2zpapT4hPdr0nbo9WkEl-148" value="" style="endArrow=none;html=1;entryX=1;entryY=1;entryDx=0;entryDy=0;exitX=0.5;exitY=0;exitDx=0;exitDy=0;" edge="1" parent="1" target="2zpapT4hPdr0nbo9WkEl-137">
          <mxGeometry width="50" height="50" relative="1" as="geometry">
            <mxPoint x="-140" y="1694" as="sourcePoint" />
            <mxPoint x="-110" y="1650" as="targetPoint" />
          </mxGeometry>
        </mxCell>
        <mxCell id="2zpapT4hPdr0nbo9WkEl-149" value="고객" style="whiteSpace=wrap;html=1;aspect=fixed;" vertex="1" parent="1">
          <mxGeometry x="240" y="1694" width="60" height="60" as="geometry" />
        </mxCell>
        <mxCell id="2zpapT4hPdr0nbo9WkEl-150" value="&lt;u&gt;고객번호&lt;/u&gt;" style="ellipse;whiteSpace=wrap;html=1;aspect=fixed;" vertex="1" parent="1">
          <mxGeometry x="130" y="1600" width="60" height="60" as="geometry" />
        </mxCell>
        <mxCell id="2zpapT4hPdr0nbo9WkEl-151" value="이름" style="ellipse;whiteSpace=wrap;html=1;aspect=fixed;" vertex="1" parent="1">
          <mxGeometry x="200" y="1600" width="60" height="60" as="geometry" />
        </mxCell>
        <mxCell id="2zpapT4hPdr0nbo9WkEl-152" value="주소" style="ellipse;whiteSpace=wrap;html=1;aspect=fixed;" vertex="1" parent="1">
          <mxGeometry x="270" y="1600" width="60" height="60" as="geometry" />
        </mxCell>
        <mxCell id="2zpapT4hPdr0nbo9WkEl-153" value="생년월일" style="ellipse;whiteSpace=wrap;html=1;aspect=fixed;" vertex="1" parent="1">
          <mxGeometry x="340" y="1600" width="60" height="60" as="geometry" />
        </mxCell>
        <mxCell id="2zpapT4hPdr0nbo9WkEl-156" value="" style="endArrow=none;html=1;entryX=0.5;entryY=1;entryDx=0;entryDy=0;exitX=0.5;exitY=0;exitDx=0;exitDy=0;" edge="1" target="2zpapT4hPdr0nbo9WkEl-152" parent="1" source="2zpapT4hPdr0nbo9WkEl-149">
          <mxGeometry width="50" height="50" relative="1" as="geometry">
            <mxPoint x="310" y="1694" as="sourcePoint" />
            <mxPoint x="340" y="1650" as="targetPoint" />
          </mxGeometry>
        </mxCell>
        <mxCell id="2zpapT4hPdr0nbo9WkEl-157" value="" style="endArrow=none;html=1;exitX=0.5;exitY=0;exitDx=0;exitDy=0;" edge="1" target="2zpapT4hPdr0nbo9WkEl-153" parent="1" source="2zpapT4hPdr0nbo9WkEl-149">
          <mxGeometry width="50" height="50" relative="1" as="geometry">
            <mxPoint x="310" y="1694" as="sourcePoint" />
            <mxPoint x="340" y="1650" as="targetPoint" />
          </mxGeometry>
        </mxCell>
        <mxCell id="2zpapT4hPdr0nbo9WkEl-160" value="" style="endArrow=none;html=1;entryX=1;entryY=1;entryDx=0;entryDy=0;exitX=0.4;exitY=-0.017;exitDx=0;exitDy=0;exitPerimeter=0;" edge="1" target="2zpapT4hPdr0nbo9WkEl-151" parent="1" source="2zpapT4hPdr0nbo9WkEl-149">
          <mxGeometry width="50" height="50" relative="1" as="geometry">
            <mxPoint x="310" y="1694" as="sourcePoint" />
            <mxPoint x="340" y="1650" as="targetPoint" />
          </mxGeometry>
        </mxCell>
        <mxCell id="2zpapT4hPdr0nbo9WkEl-161" value="" style="endArrow=none;html=1;entryX=1;entryY=1;entryDx=0;entryDy=0;exitX=0.25;exitY=0;exitDx=0;exitDy=0;" edge="1" target="2zpapT4hPdr0nbo9WkEl-150" parent="1" source="2zpapT4hPdr0nbo9WkEl-149">
          <mxGeometry width="50" height="50" relative="1" as="geometry">
            <mxPoint x="310" y="1694" as="sourcePoint" />
            <mxPoint x="340" y="1650" as="targetPoint" />
          </mxGeometry>
        </mxCell>
        <mxCell id="2zpapT4hPdr0nbo9WkEl-162" value="예금계좌" style="rounded=0;whiteSpace=wrap;html=1;" vertex="1" parent="1">
          <mxGeometry x="-36" y="1870" width="120" height="60" as="geometry" />
        </mxCell>
        <mxCell id="2zpapT4hPdr0nbo9WkEl-163" value="&lt;u&gt;예금번호&lt;/u&gt;" style="ellipse;whiteSpace=wrap;html=1;aspect=fixed;" vertex="1" parent="1">
          <mxGeometry x="-76" y="1790" width="50" height="50" as="geometry" />
        </mxCell>
        <mxCell id="2zpapT4hPdr0nbo9WkEl-164" value="잔고" style="ellipse;whiteSpace=wrap;html=1;aspect=fixed;" vertex="1" parent="1">
          <mxGeometry x="-6" y="1790" width="50" height="50" as="geometry" />
        </mxCell>
        <mxCell id="2zpapT4hPdr0nbo9WkEl-165" value="" style="endArrow=none;html=1;exitX=0.633;exitY=-0.017;exitDx=0;exitDy=0;exitPerimeter=0;entryX=0.5;entryY=1;entryDx=0;entryDy=0;" edge="1" source="2zpapT4hPdr0nbo9WkEl-162" parent="1">
          <mxGeometry width="50" height="50" relative="1" as="geometry">
            <mxPoint x="31.82000000000005" y="1883.56" as="sourcePoint" />
            <mxPoint x="79" y="1840" as="targetPoint" />
          </mxGeometry>
        </mxCell>
        <mxCell id="2zpapT4hPdr0nbo9WkEl-166" value="" style="endArrow=none;html=1;exitX=0.633;exitY=-0.017;exitDx=0;exitDy=0;exitPerimeter=0;entryX=0.86;entryY=1;entryDx=0;entryDy=0;entryPerimeter=0;" edge="1" source="2zpapT4hPdr0nbo9WkEl-162" target="2zpapT4hPdr0nbo9WkEl-164" parent="1">
          <mxGeometry width="50" height="50" relative="1" as="geometry">
            <mxPoint x="31.82000000000005" y="1883.56" as="sourcePoint" />
            <mxPoint x="54" y="1840" as="targetPoint" />
          </mxGeometry>
        </mxCell>
        <mxCell id="2zpapT4hPdr0nbo9WkEl-167" value="" style="endArrow=none;html=1;exitX=0.633;exitY=-0.017;exitDx=0;exitDy=0;exitPerimeter=0;entryX=1;entryY=1;entryDx=0;entryDy=0;" edge="1" source="2zpapT4hPdr0nbo9WkEl-162" target="2zpapT4hPdr0nbo9WkEl-163" parent="1">
          <mxGeometry width="50" height="50" relative="1" as="geometry">
            <mxPoint x="31.82000000000005" y="1883.56" as="sourcePoint" />
            <mxPoint x="54" y="1840" as="targetPoint" />
          </mxGeometry>
        </mxCell>
        <mxCell id="2zpapT4hPdr0nbo9WkEl-168" value="입출금내역" style="ellipse;whiteSpace=wrap;html=1;aspect=fixed;" vertex="1" parent="1">
          <mxGeometry x="64" y="1790" width="50" height="50" as="geometry" />
        </mxCell>
        <mxCell id="2zpapT4hPdr0nbo9WkEl-170" style="edgeStyle=orthogonalEdgeStyle;rounded=0;orthogonalLoop=1;jettySize=auto;html=1;" edge="1" parent="1" source="2zpapT4hPdr0nbo9WkEl-169" target="2zpapT4hPdr0nbo9WkEl-149">
          <mxGeometry relative="1" as="geometry" />
        </mxCell>
        <mxCell id="2zpapT4hPdr0nbo9WkEl-171" style="edgeStyle=orthogonalEdgeStyle;rounded=0;orthogonalLoop=1;jettySize=auto;html=1;entryX=1.017;entryY=0.633;entryDx=0;entryDy=0;entryPerimeter=0;" edge="1" parent="1" source="2zpapT4hPdr0nbo9WkEl-169" target="2zpapT4hPdr0nbo9WkEl-162">
          <mxGeometry relative="1" as="geometry" />
        </mxCell>
        <mxCell id="2zpapT4hPdr0nbo9WkEl-169" value="예금" style="rhombus;whiteSpace=wrap;html=1;" vertex="1" parent="1">
          <mxGeometry x="156" y="1860" width="64" height="64" as="geometry" />
        </mxCell>
        <mxCell id="2zpapT4hPdr0nbo9WkEl-173" value="n" style="text;html=1;strokeColor=none;fillColor=none;align=center;verticalAlign=middle;whiteSpace=wrap;rounded=0;" vertex="1" parent="1">
          <mxGeometry x="280" y="1763" width="10" height="20" as="geometry" />
        </mxCell>
        <mxCell id="2zpapT4hPdr0nbo9WkEl-176" style="edgeStyle=orthogonalEdgeStyle;rounded=0;orthogonalLoop=1;jettySize=auto;html=1;entryX=0;entryY=0.75;entryDx=0;entryDy=0;" edge="1" parent="1" source="2zpapT4hPdr0nbo9WkEl-175" target="2zpapT4hPdr0nbo9WkEl-162">
          <mxGeometry relative="1" as="geometry">
            <Array as="points">
              <mxPoint x="-110" y="1815" />
              <mxPoint x="-110" y="1915" />
            </Array>
          </mxGeometry>
        </mxCell>
        <mxCell id="2zpapT4hPdr0nbo9WkEl-179" value="" style="edgeStyle=orthogonalEdgeStyle;rounded=0;orthogonalLoop=1;jettySize=auto;html=1;" edge="1" parent="1" source="2zpapT4hPdr0nbo9WkEl-175" target="2zpapT4hPdr0nbo9WkEl-136">
          <mxGeometry relative="1" as="geometry" />
        </mxCell>
        <mxCell id="2zpapT4hPdr0nbo9WkEl-175" value="관리" style="rhombus;whiteSpace=wrap;html=1;" vertex="1" parent="1">
          <mxGeometry x="-190" y="1783" width="64" height="64" as="geometry" />
        </mxCell>
        <mxCell id="2zpapT4hPdr0nbo9WkEl-181" value="1" style="text;html=1;strokeColor=none;fillColor=none;align=center;verticalAlign=middle;whiteSpace=wrap;rounded=0;" vertex="1" parent="1">
          <mxGeometry x="-200" y="1750" width="40" height="20" as="geometry" />
        </mxCell>
        <mxCell id="2zpapT4hPdr0nbo9WkEl-182" value="n" style="text;html=1;strokeColor=none;fillColor=none;align=center;verticalAlign=middle;whiteSpace=wrap;rounded=0;" vertex="1" parent="1">
          <mxGeometry x="-80" y="1924" width="10" height="20" as="geometry" />
        </mxCell>
        <mxCell id="2zpapT4hPdr0nbo9WkEl-183" value="m" style="text;html=1;strokeColor=none;fillColor=none;align=center;verticalAlign=middle;whiteSpace=wrap;rounded=0;" vertex="1" parent="1">
          <mxGeometry x="90" y="1910" width="40" height="20" as="geometry" />
        </mxCell>
        <mxCell id="2zpapT4hPdr0nbo9WkEl-269" style="edgeStyle=orthogonalEdgeStyle;rounded=0;orthogonalLoop=1;jettySize=auto;html=1;entryX=0;entryY=0.5;entryDx=0;entryDy=0;" edge="1" parent="1" source="2zpapT4hPdr0nbo9WkEl-185" target="2zpapT4hPdr0nbo9WkEl-252">
          <mxGeometry relative="1" as="geometry">
            <Array as="points">
              <mxPoint x="-470" y="3120" />
              <mxPoint x="-470" y="2830" />
            </Array>
          </mxGeometry>
        </mxCell>
        <mxCell id="2zpapT4hPdr0nbo9WkEl-185" value="학생" style="whiteSpace=wrap;html=1;aspect=fixed;" vertex="1" parent="1">
          <mxGeometry x="-210" y="3090" width="60" height="60" as="geometry" />
        </mxCell>
        <mxCell id="2zpapT4hPdr0nbo9WkEl-186" value="&lt;u&gt;학번&lt;/u&gt;" style="ellipse;whiteSpace=wrap;html=1;aspect=fixed;" vertex="1" parent="1">
          <mxGeometry x="-370" y="2960" width="60" height="60" as="geometry" />
        </mxCell>
        <mxCell id="2zpapT4hPdr0nbo9WkEl-187" value="주민번호" style="ellipse;whiteSpace=wrap;html=1;aspect=fixed;" vertex="1" parent="1">
          <mxGeometry x="-300" y="2960" width="60" height="60" as="geometry" />
        </mxCell>
        <mxCell id="2zpapT4hPdr0nbo9WkEl-188" value="이름" style="ellipse;whiteSpace=wrap;html=1;aspect=fixed;" vertex="1" parent="1">
          <mxGeometry x="-228" y="2960" width="60" height="60" as="geometry" />
        </mxCell>
        <mxCell id="2zpapT4hPdr0nbo9WkEl-189" value="주소" style="ellipse;whiteSpace=wrap;html=1;aspect=fixed;" vertex="1" parent="1">
          <mxGeometry x="-160" y="2960" width="60" height="60" as="geometry" />
        </mxCell>
        <mxCell id="2zpapT4hPdr0nbo9WkEl-190" value="전화" style="ellipse;whiteSpace=wrap;html=1;aspect=fixed;" vertex="1" parent="1">
          <mxGeometry x="-90" y="2960" width="60" height="60" as="geometry" />
        </mxCell>
        <mxCell id="2zpapT4hPdr0nbo9WkEl-191" value="학년" style="ellipse;whiteSpace=wrap;html=1;aspect=fixed;" vertex="1" parent="1">
          <mxGeometry x="-20" y="2960" width="60" height="60" as="geometry" />
        </mxCell>
        <mxCell id="2zpapT4hPdr0nbo9WkEl-192" value="" style="endArrow=none;html=1;entryX=0.5;entryY=1;entryDx=0;entryDy=0;" edge="1" parent="1" target="2zpapT4hPdr0nbo9WkEl-189">
          <mxGeometry width="50" height="50" relative="1" as="geometry">
            <mxPoint x="-180" y="3090" as="sourcePoint" />
            <mxPoint x="-130" y="3040" as="targetPoint" />
          </mxGeometry>
        </mxCell>
        <mxCell id="2zpapT4hPdr0nbo9WkEl-193" value="" style="endArrow=none;html=1;entryX=0.5;entryY=1;entryDx=0;entryDy=0;" edge="1" parent="1" target="2zpapT4hPdr0nbo9WkEl-190">
          <mxGeometry width="50" height="50" relative="1" as="geometry">
            <mxPoint x="-180" y="3090" as="sourcePoint" />
            <mxPoint x="-130" y="3040" as="targetPoint" />
          </mxGeometry>
        </mxCell>
        <mxCell id="2zpapT4hPdr0nbo9WkEl-194" value="" style="endArrow=none;html=1;entryX=0.5;entryY=1;entryDx=0;entryDy=0;" edge="1" parent="1" target="2zpapT4hPdr0nbo9WkEl-191">
          <mxGeometry width="50" height="50" relative="1" as="geometry">
            <mxPoint x="-180" y="3090" as="sourcePoint" />
            <mxPoint x="-130" y="3040" as="targetPoint" />
          </mxGeometry>
        </mxCell>
        <mxCell id="2zpapT4hPdr0nbo9WkEl-195" value="" style="endArrow=none;html=1;" edge="1" parent="1" target="2zpapT4hPdr0nbo9WkEl-188">
          <mxGeometry width="50" height="50" relative="1" as="geometry">
            <mxPoint x="-180" y="3090" as="sourcePoint" />
            <mxPoint x="-130" y="3040" as="targetPoint" />
          </mxGeometry>
        </mxCell>
        <mxCell id="2zpapT4hPdr0nbo9WkEl-196" value="" style="endArrow=none;html=1;entryX=1;entryY=1;entryDx=0;entryDy=0;" edge="1" parent="1" target="2zpapT4hPdr0nbo9WkEl-187">
          <mxGeometry width="50" height="50" relative="1" as="geometry">
            <mxPoint x="-180" y="3090" as="sourcePoint" />
            <mxPoint x="-130" y="3040" as="targetPoint" />
          </mxGeometry>
        </mxCell>
        <mxCell id="2zpapT4hPdr0nbo9WkEl-197" value="" style="endArrow=none;html=1;entryX=0.617;entryY=1;entryDx=0;entryDy=0;entryPerimeter=0;" edge="1" parent="1" target="2zpapT4hPdr0nbo9WkEl-186">
          <mxGeometry width="50" height="50" relative="1" as="geometry">
            <mxPoint x="-180" y="3090" as="sourcePoint" />
            <mxPoint x="-130" y="3040" as="targetPoint" />
          </mxGeometry>
        </mxCell>
        <mxCell id="2zpapT4hPdr0nbo9WkEl-268" style="edgeStyle=orthogonalEdgeStyle;rounded=0;orthogonalLoop=1;jettySize=auto;html=1;entryX=1;entryY=0.25;entryDx=0;entryDy=0;" edge="1" parent="1" source="2zpapT4hPdr0nbo9WkEl-212" target="2zpapT4hPdr0nbo9WkEl-252">
          <mxGeometry relative="1" as="geometry">
            <Array as="points">
              <mxPoint x="670" y="3120" />
              <mxPoint x="670" y="2815" />
            </Array>
          </mxGeometry>
        </mxCell>
        <mxCell id="2zpapT4hPdr0nbo9WkEl-212" value="교수" style="whiteSpace=wrap;html=1;aspect=fixed;" vertex="1" parent="1">
          <mxGeometry x="250" y="3090" width="60" height="60" as="geometry" />
        </mxCell>
        <mxCell id="2zpapT4hPdr0nbo9WkEl-213" value="&lt;u&gt;교수번호&lt;/u&gt;" style="ellipse;whiteSpace=wrap;html=1;aspect=fixed;" vertex="1" parent="1">
          <mxGeometry x="90" y="2960" width="60" height="60" as="geometry" />
        </mxCell>
        <mxCell id="2zpapT4hPdr0nbo9WkEl-214" value="주민번호" style="ellipse;whiteSpace=wrap;html=1;aspect=fixed;" vertex="1" parent="1">
          <mxGeometry x="160" y="2960" width="60" height="60" as="geometry" />
        </mxCell>
        <mxCell id="2zpapT4hPdr0nbo9WkEl-215" value="이름" style="ellipse;whiteSpace=wrap;html=1;aspect=fixed;" vertex="1" parent="1">
          <mxGeometry x="232" y="2960" width="60" height="60" as="geometry" />
        </mxCell>
        <mxCell id="2zpapT4hPdr0nbo9WkEl-216" value="주소" style="ellipse;whiteSpace=wrap;html=1;aspect=fixed;" vertex="1" parent="1">
          <mxGeometry x="300" y="2960" width="60" height="60" as="geometry" />
        </mxCell>
        <mxCell id="2zpapT4hPdr0nbo9WkEl-217" value="전화" style="ellipse;whiteSpace=wrap;html=1;aspect=fixed;" vertex="1" parent="1">
          <mxGeometry x="370" y="2960" width="60" height="60" as="geometry" />
        </mxCell>
        <mxCell id="2zpapT4hPdr0nbo9WkEl-218" value="직위" style="ellipse;whiteSpace=wrap;html=1;aspect=fixed;" vertex="1" parent="1">
          <mxGeometry x="440" y="2960" width="60" height="60" as="geometry" />
        </mxCell>
        <mxCell id="2zpapT4hPdr0nbo9WkEl-219" value="" style="endArrow=none;html=1;entryX=0.5;entryY=1;entryDx=0;entryDy=0;" edge="1" target="2zpapT4hPdr0nbo9WkEl-216" parent="1">
          <mxGeometry width="50" height="50" relative="1" as="geometry">
            <mxPoint x="280" y="3090" as="sourcePoint" />
            <mxPoint x="330" y="3040" as="targetPoint" />
          </mxGeometry>
        </mxCell>
        <mxCell id="2zpapT4hPdr0nbo9WkEl-220" value="" style="endArrow=none;html=1;entryX=0.5;entryY=1;entryDx=0;entryDy=0;" edge="1" target="2zpapT4hPdr0nbo9WkEl-217" parent="1">
          <mxGeometry width="50" height="50" relative="1" as="geometry">
            <mxPoint x="280" y="3090" as="sourcePoint" />
            <mxPoint x="330" y="3040" as="targetPoint" />
          </mxGeometry>
        </mxCell>
        <mxCell id="2zpapT4hPdr0nbo9WkEl-221" value="" style="endArrow=none;html=1;entryX=0.5;entryY=1;entryDx=0;entryDy=0;" edge="1" target="2zpapT4hPdr0nbo9WkEl-218" parent="1">
          <mxGeometry width="50" height="50" relative="1" as="geometry">
            <mxPoint x="280" y="3090" as="sourcePoint" />
            <mxPoint x="330" y="3040" as="targetPoint" />
          </mxGeometry>
        </mxCell>
        <mxCell id="2zpapT4hPdr0nbo9WkEl-222" value="" style="endArrow=none;html=1;" edge="1" target="2zpapT4hPdr0nbo9WkEl-215" parent="1">
          <mxGeometry width="50" height="50" relative="1" as="geometry">
            <mxPoint x="280" y="3090" as="sourcePoint" />
            <mxPoint x="330" y="3040" as="targetPoint" />
          </mxGeometry>
        </mxCell>
        <mxCell id="2zpapT4hPdr0nbo9WkEl-223" value="" style="endArrow=none;html=1;entryX=1;entryY=1;entryDx=0;entryDy=0;" edge="1" target="2zpapT4hPdr0nbo9WkEl-214" parent="1">
          <mxGeometry width="50" height="50" relative="1" as="geometry">
            <mxPoint x="280" y="3090" as="sourcePoint" />
            <mxPoint x="330" y="3040" as="targetPoint" />
          </mxGeometry>
        </mxCell>
        <mxCell id="2zpapT4hPdr0nbo9WkEl-224" value="" style="endArrow=none;html=1;entryX=0.617;entryY=1;entryDx=0;entryDy=0;entryPerimeter=0;" edge="1" target="2zpapT4hPdr0nbo9WkEl-213" parent="1">
          <mxGeometry width="50" height="50" relative="1" as="geometry">
            <mxPoint x="280" y="3090" as="sourcePoint" />
            <mxPoint x="330" y="3040" as="targetPoint" />
          </mxGeometry>
        </mxCell>
        <mxCell id="2zpapT4hPdr0nbo9WkEl-225" value="임용년도" style="ellipse;whiteSpace=wrap;html=1;aspect=fixed;" vertex="1" parent="1">
          <mxGeometry x="510" y="2960" width="60" height="60" as="geometry" />
        </mxCell>
        <mxCell id="2zpapT4hPdr0nbo9WkEl-226" value="" style="endArrow=none;html=1;entryX=0.5;entryY=1;entryDx=0;entryDy=0;" edge="1" parent="1" target="2zpapT4hPdr0nbo9WkEl-225">
          <mxGeometry width="50" height="50" relative="1" as="geometry">
            <mxPoint x="280" y="3090" as="sourcePoint" />
            <mxPoint x="330" y="3040" as="targetPoint" />
          </mxGeometry>
        </mxCell>
        <mxCell id="2zpapT4hPdr0nbo9WkEl-243" style="edgeStyle=orthogonalEdgeStyle;rounded=0;orthogonalLoop=1;jettySize=auto;html=1;" edge="1" parent="1" source="2zpapT4hPdr0nbo9WkEl-227" target="2zpapT4hPdr0nbo9WkEl-185">
          <mxGeometry relative="1" as="geometry" />
        </mxCell>
        <mxCell id="2zpapT4hPdr0nbo9WkEl-244" style="edgeStyle=orthogonalEdgeStyle;rounded=0;orthogonalLoop=1;jettySize=auto;html=1;entryX=0.5;entryY=1;entryDx=0;entryDy=0;" edge="1" parent="1" source="2zpapT4hPdr0nbo9WkEl-227" target="2zpapT4hPdr0nbo9WkEl-212">
          <mxGeometry relative="1" as="geometry" />
        </mxCell>
        <mxCell id="2zpapT4hPdr0nbo9WkEl-227" value="학과" style="whiteSpace=wrap;html=1;aspect=fixed;" vertex="1" parent="1">
          <mxGeometry x="30" y="3200" width="60" height="60" as="geometry" />
        </mxCell>
        <mxCell id="2zpapT4hPdr0nbo9WkEl-228" value="&lt;u&gt;학과번호&lt;/u&gt;" style="ellipse;whiteSpace=wrap;html=1;aspect=fixed;" vertex="1" parent="1">
          <mxGeometry x="-65" y="3290" width="60" height="60" as="geometry" />
        </mxCell>
        <mxCell id="2zpapT4hPdr0nbo9WkEl-229" value="학과명" style="ellipse;whiteSpace=wrap;html=1;aspect=fixed;" vertex="1" parent="1">
          <mxGeometry x="5" y="3290" width="60" height="60" as="geometry" />
        </mxCell>
        <mxCell id="2zpapT4hPdr0nbo9WkEl-230" value="사무실" style="ellipse;whiteSpace=wrap;html=1;aspect=fixed;" vertex="1" parent="1">
          <mxGeometry x="77" y="3290" width="60" height="60" as="geometry" />
        </mxCell>
        <mxCell id="2zpapT4hPdr0nbo9WkEl-231" value="전화" style="ellipse;whiteSpace=wrap;html=1;aspect=fixed;" vertex="1" parent="1">
          <mxGeometry x="145" y="3290" width="60" height="60" as="geometry" />
        </mxCell>
        <mxCell id="2zpapT4hPdr0nbo9WkEl-237" value="" style="endArrow=none;html=1;entryX=0.5;entryY=1;entryDx=0;entryDy=0;exitX=0.5;exitY=0;exitDx=0;exitDy=0;" edge="1" target="2zpapT4hPdr0nbo9WkEl-227" parent="1" source="2zpapT4hPdr0nbo9WkEl-230">
          <mxGeometry width="50" height="50" relative="1" as="geometry">
            <mxPoint x="50" y="3420" as="sourcePoint" />
            <mxPoint x="100" y="3370" as="targetPoint" />
          </mxGeometry>
        </mxCell>
        <mxCell id="2zpapT4hPdr0nbo9WkEl-240" value="" style="endArrow=none;html=1;entryX=0.5;entryY=1;entryDx=0;entryDy=0;exitX=0.5;exitY=0;exitDx=0;exitDy=0;" edge="1" parent="1" source="2zpapT4hPdr0nbo9WkEl-229" target="2zpapT4hPdr0nbo9WkEl-227">
          <mxGeometry width="50" height="50" relative="1" as="geometry">
            <mxPoint x="50" y="3420" as="sourcePoint" />
            <mxPoint x="100" y="3370" as="targetPoint" />
          </mxGeometry>
        </mxCell>
        <mxCell id="2zpapT4hPdr0nbo9WkEl-241" value="" style="endArrow=none;html=1;entryX=0.5;entryY=1;entryDx=0;entryDy=0;exitX=0.5;exitY=0;exitDx=0;exitDy=0;" edge="1" parent="1" source="2zpapT4hPdr0nbo9WkEl-228" target="2zpapT4hPdr0nbo9WkEl-227">
          <mxGeometry width="50" height="50" relative="1" as="geometry">
            <mxPoint x="50" y="3420" as="sourcePoint" />
            <mxPoint x="100" y="3370" as="targetPoint" />
          </mxGeometry>
        </mxCell>
        <mxCell id="2zpapT4hPdr0nbo9WkEl-242" value="" style="endArrow=none;html=1;entryX=0.5;entryY=1;entryDx=0;entryDy=0;exitX=0.5;exitY=0;exitDx=0;exitDy=0;" edge="1" parent="1" source="2zpapT4hPdr0nbo9WkEl-231" target="2zpapT4hPdr0nbo9WkEl-227">
          <mxGeometry width="50" height="50" relative="1" as="geometry">
            <mxPoint x="50" y="3420" as="sourcePoint" />
            <mxPoint x="100" y="3370" as="targetPoint" />
          </mxGeometry>
        </mxCell>
        <mxCell id="2zpapT4hPdr0nbo9WkEl-245" value="소속" style="rhombus;whiteSpace=wrap;html=1;" vertex="1" parent="1">
          <mxGeometry x="-220" y="3190" width="80" height="80" as="geometry" />
        </mxCell>
        <mxCell id="2zpapT4hPdr0nbo9WkEl-247" value="소속" style="rhombus;whiteSpace=wrap;html=1;" vertex="1" parent="1">
          <mxGeometry x="240" y="3180" width="80" height="80" as="geometry" />
        </mxCell>
        <mxCell id="2zpapT4hPdr0nbo9WkEl-248" value="n" style="text;html=1;strokeColor=none;fillColor=none;align=center;verticalAlign=middle;whiteSpace=wrap;rounded=0;" vertex="1" parent="1">
          <mxGeometry x="-135" y="3110" width="40" height="20" as="geometry" />
        </mxCell>
        <mxCell id="2zpapT4hPdr0nbo9WkEl-249" value="1" style="text;html=1;strokeColor=none;fillColor=none;align=center;verticalAlign=middle;whiteSpace=wrap;rounded=0;" vertex="1" parent="1">
          <mxGeometry x="-25" y="3190" width="40" height="20" as="geometry" />
        </mxCell>
        <mxCell id="2zpapT4hPdr0nbo9WkEl-250" value="n" style="text;html=1;strokeColor=none;fillColor=none;align=center;verticalAlign=middle;whiteSpace=wrap;rounded=0;" vertex="1" parent="1">
          <mxGeometry x="200" y="3090" width="40" height="20" as="geometry" />
        </mxCell>
        <mxCell id="2zpapT4hPdr0nbo9WkEl-251" value="1" style="text;html=1;strokeColor=none;fillColor=none;align=center;verticalAlign=middle;whiteSpace=wrap;rounded=0;" vertex="1" parent="1">
          <mxGeometry x="97" y="3190" width="40" height="20" as="geometry" />
        </mxCell>
        <mxCell id="2zpapT4hPdr0nbo9WkEl-252" value="강좌" style="whiteSpace=wrap;html=1;aspect=fixed;" vertex="1" parent="1">
          <mxGeometry x="30" y="2800" width="60" height="60" as="geometry" />
        </mxCell>
        <mxCell id="2zpapT4hPdr0nbo9WkEl-253" value="&lt;u&gt;강좌번호&lt;/u&gt;" style="ellipse;whiteSpace=wrap;html=1;aspect=fixed;" vertex="1" parent="1">
          <mxGeometry x="-161" y="2670" width="60" height="60" as="geometry" />
        </mxCell>
        <mxCell id="2zpapT4hPdr0nbo9WkEl-254" value="강좌명" style="ellipse;whiteSpace=wrap;html=1;aspect=fixed;" vertex="1" parent="1">
          <mxGeometry x="-91" y="2670" width="60" height="60" as="geometry" />
        </mxCell>
        <mxCell id="2zpapT4hPdr0nbo9WkEl-255" value="점수" style="ellipse;whiteSpace=wrap;html=1;aspect=fixed;" vertex="1" parent="1">
          <mxGeometry x="-19" y="2670" width="60" height="60" as="geometry" />
        </mxCell>
        <mxCell id="2zpapT4hPdr0nbo9WkEl-256" value="연도" style="ellipse;whiteSpace=wrap;html=1;aspect=fixed;" vertex="1" parent="1">
          <mxGeometry x="49" y="2670" width="60" height="60" as="geometry" />
        </mxCell>
        <mxCell id="2zpapT4hPdr0nbo9WkEl-257" value="학기" style="ellipse;whiteSpace=wrap;html=1;aspect=fixed;" vertex="1" parent="1">
          <mxGeometry x="119" y="2670" width="60" height="60" as="geometry" />
        </mxCell>
        <mxCell id="2zpapT4hPdr0nbo9WkEl-258" value="강의실" style="ellipse;whiteSpace=wrap;html=1;aspect=fixed;" vertex="1" parent="1">
          <mxGeometry x="189" y="2670" width="60" height="60" as="geometry" />
        </mxCell>
        <mxCell id="2zpapT4hPdr0nbo9WkEl-259" value="수강인원" style="ellipse;whiteSpace=wrap;html=1;aspect=fixed;" vertex="1" parent="1">
          <mxGeometry x="259" y="2670" width="60" height="60" as="geometry" />
        </mxCell>
        <mxCell id="2zpapT4hPdr0nbo9WkEl-261" value="" style="endArrow=none;html=1;entryX=0.5;entryY=1;entryDx=0;entryDy=0;" edge="1" parent="1" target="2zpapT4hPdr0nbo9WkEl-256">
          <mxGeometry width="50" height="50" relative="1" as="geometry">
            <mxPoint x="59" y="2800" as="sourcePoint" />
            <mxPoint x="109" y="2750" as="targetPoint" />
          </mxGeometry>
        </mxCell>
        <mxCell id="2zpapT4hPdr0nbo9WkEl-262" value="" style="endArrow=none;html=1;entryX=0.7;entryY=1.033;entryDx=0;entryDy=0;entryPerimeter=0;" edge="1" parent="1" target="2zpapT4hPdr0nbo9WkEl-255">
          <mxGeometry width="50" height="50" relative="1" as="geometry">
            <mxPoint x="59" y="2800" as="sourcePoint" />
            <mxPoint x="109" y="2750" as="targetPoint" />
          </mxGeometry>
        </mxCell>
        <mxCell id="2zpapT4hPdr0nbo9WkEl-263" value="" style="endArrow=none;html=1;" edge="1" parent="1" target="2zpapT4hPdr0nbo9WkEl-254">
          <mxGeometry width="50" height="50" relative="1" as="geometry">
            <mxPoint x="59" y="2800" as="sourcePoint" />
            <mxPoint x="109" y="2750" as="targetPoint" />
          </mxGeometry>
        </mxCell>
        <mxCell id="2zpapT4hPdr0nbo9WkEl-264" value="" style="endArrow=none;html=1;entryX=0.683;entryY=1.017;entryDx=0;entryDy=0;entryPerimeter=0;" edge="1" parent="1" target="2zpapT4hPdr0nbo9WkEl-253">
          <mxGeometry width="50" height="50" relative="1" as="geometry">
            <mxPoint x="59" y="2800" as="sourcePoint" />
            <mxPoint x="109" y="2750" as="targetPoint" />
          </mxGeometry>
        </mxCell>
        <mxCell id="2zpapT4hPdr0nbo9WkEl-265" value="" style="endArrow=none;html=1;entryX=0.5;entryY=1;entryDx=0;entryDy=0;" edge="1" parent="1" target="2zpapT4hPdr0nbo9WkEl-257">
          <mxGeometry width="50" height="50" relative="1" as="geometry">
            <mxPoint x="59" y="2800" as="sourcePoint" />
            <mxPoint x="109" y="2750" as="targetPoint" />
          </mxGeometry>
        </mxCell>
        <mxCell id="2zpapT4hPdr0nbo9WkEl-266" value="" style="endArrow=none;html=1;entryX=0.5;entryY=1;entryDx=0;entryDy=0;" edge="1" parent="1" target="2zpapT4hPdr0nbo9WkEl-258">
          <mxGeometry width="50" height="50" relative="1" as="geometry">
            <mxPoint x="59" y="2800" as="sourcePoint" />
            <mxPoint x="109" y="2750" as="targetPoint" />
          </mxGeometry>
        </mxCell>
        <mxCell id="2zpapT4hPdr0nbo9WkEl-267" value="" style="endArrow=none;html=1;entryX=0.3;entryY=1.017;entryDx=0;entryDy=0;entryPerimeter=0;" edge="1" parent="1" target="2zpapT4hPdr0nbo9WkEl-259">
          <mxGeometry width="50" height="50" relative="1" as="geometry">
            <mxPoint x="59" y="2800" as="sourcePoint" />
            <mxPoint x="109" y="2750" as="targetPoint" />
          </mxGeometry>
        </mxCell>
        <mxCell id="2zpapT4hPdr0nbo9WkEl-270" value="수강" style="rhombus;whiteSpace=wrap;html=1;" vertex="1" parent="1">
          <mxGeometry x="-510" y="2910" width="80" height="70" as="geometry" />
        </mxCell>
        <mxCell id="2zpapT4hPdr0nbo9WkEl-271" value="강의" style="rhombus;whiteSpace=wrap;html=1;" vertex="1" parent="1">
          <mxGeometry x="630" y="2910" width="80" height="70" as="geometry" />
        </mxCell>
        <mxCell id="2zpapT4hPdr0nbo9WkEl-272" value="n" style="text;html=1;strokeColor=none;fillColor=none;align=center;verticalAlign=middle;whiteSpace=wrap;rounded=0;" vertex="1" parent="1">
          <mxGeometry x="-20" y="2840" width="40" height="20" as="geometry" />
        </mxCell>
        <mxCell id="2zpapT4hPdr0nbo9WkEl-273" value="n" style="text;html=1;strokeColor=none;fillColor=none;align=center;verticalAlign=middle;whiteSpace=wrap;rounded=0;" vertex="1" parent="1">
          <mxGeometry x="105" y="2830" width="40" height="20" as="geometry" />
        </mxCell>
        <mxCell id="2zpapT4hPdr0nbo9WkEl-274" value="1" style="text;html=1;strokeColor=none;fillColor=none;align=center;verticalAlign=middle;whiteSpace=wrap;rounded=0;" vertex="1" parent="1">
          <mxGeometry x="620" y="3080" width="40" height="20" as="geometry" />
        </mxCell>
        <mxCell id="2zpapT4hPdr0nbo9WkEl-276" value="m" style="text;html=1;strokeColor=none;fillColor=none;align=center;verticalAlign=middle;whiteSpace=wrap;rounded=0;" vertex="1" parent="1">
          <mxGeometry x="-470" y="2890" width="40" height="20" as="geometry" />
        </mxCell>
        <mxCell id="2zpapT4hPdr0nbo9WkEl-277" value="성적" style="ellipse;whiteSpace=wrap;html=1;" vertex="1" parent="1">
          <mxGeometry x="-420" y="2890" width="77" height="40" as="geometry" />
        </mxCell>
        <mxCell id="2zpapT4hPdr0nbo9WkEl-278" value="" style="endArrow=none;html=1;exitX=0.85;exitY=0.271;exitDx=0;exitDy=0;exitPerimeter=0;" edge="1" parent="1" source="2zpapT4hPdr0nbo9WkEl-270">
          <mxGeometry width="50" height="50" relative="1" as="geometry">
            <mxPoint x="-450" y="2960" as="sourcePoint" />
            <mxPoint x="-410" y="2922" as="targetPoint" />
          </mxGeometry>
        </mxCell>
        <mxCell id="2zpapT4hPdr0nbo9WkEl-284" value="" style="shape=table;html=1;whiteSpace=wrap;startSize=0;container=1;collapsible=0;childLayout=tableLayout;" vertex="1" parent="1">
          <mxGeometry x="-580" y="3520" width="180" height="120" as="geometry" />
        </mxCell>
        <mxCell id="2zpapT4hPdr0nbo9WkEl-285" value="" style="shape=partialRectangle;html=1;whiteSpace=wrap;collapsible=0;dropTarget=0;pointerEvents=0;fillColor=none;top=0;left=0;bottom=0;right=0;points=[[0,0.5],[1,0.5]];portConstraint=eastwest;" vertex="1" parent="2zpapT4hPdr0nbo9WkEl-284">
          <mxGeometry width="180" height="40" as="geometry" />
        </mxCell>
        <mxCell id="2zpapT4hPdr0nbo9WkEl-286" value="&lt;u&gt;교수번호&lt;/u&gt;" style="shape=partialRectangle;html=1;whiteSpace=wrap;connectable=0;overflow=hidden;fillColor=none;top=0;left=0;bottom=0;right=0;" vertex="1" parent="2zpapT4hPdr0nbo9WkEl-285">
          <mxGeometry width="60" height="40" as="geometry" />
        </mxCell>
        <mxCell id="2zpapT4hPdr0nbo9WkEl-287" value="이름" style="shape=partialRectangle;html=1;whiteSpace=wrap;connectable=0;overflow=hidden;fillColor=none;top=0;left=0;bottom=0;right=0;" vertex="1" parent="2zpapT4hPdr0nbo9WkEl-285">
          <mxGeometry x="60" width="60" height="40" as="geometry" />
        </mxCell>
        <mxCell id="2zpapT4hPdr0nbo9WkEl-288" value="학과" style="shape=partialRectangle;html=1;whiteSpace=wrap;connectable=0;overflow=hidden;fillColor=none;top=0;left=0;bottom=0;right=0;" vertex="1" parent="2zpapT4hPdr0nbo9WkEl-285">
          <mxGeometry x="120" width="60" height="40" as="geometry" />
        </mxCell>
        <mxCell id="2zpapT4hPdr0nbo9WkEl-289" value="" style="shape=partialRectangle;html=1;whiteSpace=wrap;collapsible=0;dropTarget=0;pointerEvents=0;fillColor=none;top=0;left=0;bottom=0;right=0;points=[[0,0.5],[1,0.5]];portConstraint=eastwest;" vertex="1" parent="2zpapT4hPdr0nbo9WkEl-284">
          <mxGeometry y="40" width="180" height="40" as="geometry" />
        </mxCell>
        <mxCell id="2zpapT4hPdr0nbo9WkEl-290" value="1" style="shape=partialRectangle;html=1;whiteSpace=wrap;connectable=0;overflow=hidden;fillColor=none;top=0;left=0;bottom=0;right=0;" vertex="1" parent="2zpapT4hPdr0nbo9WkEl-289">
          <mxGeometry width="60" height="40" as="geometry" />
        </mxCell>
        <mxCell id="2zpapT4hPdr0nbo9WkEl-291" value="홍길동" style="shape=partialRectangle;html=1;whiteSpace=wrap;connectable=0;overflow=hidden;fillColor=none;top=0;left=0;bottom=0;right=0;" vertex="1" parent="2zpapT4hPdr0nbo9WkEl-289">
          <mxGeometry x="60" width="60" height="40" as="geometry" />
        </mxCell>
        <mxCell id="2zpapT4hPdr0nbo9WkEl-292" value="파이썬" style="shape=partialRectangle;html=1;whiteSpace=wrap;connectable=0;overflow=hidden;fillColor=none;top=0;left=0;bottom=0;right=0;" vertex="1" parent="2zpapT4hPdr0nbo9WkEl-289">
          <mxGeometry x="120" width="60" height="40" as="geometry" />
        </mxCell>
        <mxCell id="2zpapT4hPdr0nbo9WkEl-293" value="" style="shape=partialRectangle;html=1;whiteSpace=wrap;collapsible=0;dropTarget=0;pointerEvents=0;fillColor=none;top=0;left=0;bottom=0;right=0;points=[[0,0.5],[1,0.5]];portConstraint=eastwest;" vertex="1" parent="2zpapT4hPdr0nbo9WkEl-284">
          <mxGeometry y="80" width="180" height="40" as="geometry" />
        </mxCell>
        <mxCell id="2zpapT4hPdr0nbo9WkEl-294" value="2" style="shape=partialRectangle;html=1;whiteSpace=wrap;connectable=0;overflow=hidden;fillColor=none;top=0;left=0;bottom=0;right=0;" vertex="1" parent="2zpapT4hPdr0nbo9WkEl-293">
          <mxGeometry width="60" height="40" as="geometry" />
        </mxCell>
        <mxCell id="2zpapT4hPdr0nbo9WkEl-295" value="유관순" style="shape=partialRectangle;html=1;whiteSpace=wrap;connectable=0;overflow=hidden;fillColor=none;top=0;left=0;bottom=0;right=0;" vertex="1" parent="2zpapT4hPdr0nbo9WkEl-293">
          <mxGeometry x="60" width="60" height="40" as="geometry" />
        </mxCell>
        <mxCell id="2zpapT4hPdr0nbo9WkEl-296" value="자바" style="shape=partialRectangle;html=1;whiteSpace=wrap;connectable=0;overflow=hidden;fillColor=none;top=0;left=0;bottom=0;right=0;" vertex="1" parent="2zpapT4hPdr0nbo9WkEl-293">
          <mxGeometry x="120" width="60" height="40" as="geometry" />
        </mxCell>
        <mxCell id="2zpapT4hPdr0nbo9WkEl-297" value="교수" style="text;html=1;strokeColor=none;fillColor=none;align=center;verticalAlign=middle;whiteSpace=wrap;rounded=0;" vertex="1" parent="1">
          <mxGeometry x="-510" y="3650" width="40" height="20" as="geometry" />
        </mxCell>
        <mxCell id="2zpapT4hPdr0nbo9WkEl-298" value="" style="shape=table;html=1;whiteSpace=wrap;startSize=0;container=1;collapsible=0;childLayout=tableLayout;" vertex="1" parent="1">
          <mxGeometry x="-330" y="3520" width="180" height="120" as="geometry" />
        </mxCell>
        <mxCell id="2zpapT4hPdr0nbo9WkEl-299" value="" style="shape=partialRectangle;html=1;whiteSpace=wrap;collapsible=0;dropTarget=0;pointerEvents=0;fillColor=none;top=0;left=0;bottom=0;right=0;points=[[0,0.5],[1,0.5]];portConstraint=eastwest;" vertex="1" parent="2zpapT4hPdr0nbo9WkEl-298">
          <mxGeometry width="180" height="40" as="geometry" />
        </mxCell>
        <mxCell id="2zpapT4hPdr0nbo9WkEl-300" value="&lt;u&gt;과목번호&lt;/u&gt;" style="shape=partialRectangle;html=1;whiteSpace=wrap;connectable=0;overflow=hidden;fillColor=none;top=0;left=0;bottom=0;right=0;" vertex="1" parent="2zpapT4hPdr0nbo9WkEl-299">
          <mxGeometry width="60" height="40" as="geometry" />
        </mxCell>
        <mxCell id="2zpapT4hPdr0nbo9WkEl-301" value="과목이름" style="shape=partialRectangle;html=1;whiteSpace=wrap;connectable=0;overflow=hidden;fillColor=none;top=0;left=0;bottom=0;right=0;" vertex="1" parent="2zpapT4hPdr0nbo9WkEl-299">
          <mxGeometry x="60" width="60" height="40" as="geometry" />
        </mxCell>
        <mxCell id="2zpapT4hPdr0nbo9WkEl-302" value="학점" style="shape=partialRectangle;html=1;whiteSpace=wrap;connectable=0;overflow=hidden;fillColor=none;top=0;left=0;bottom=0;right=0;" vertex="1" parent="2zpapT4hPdr0nbo9WkEl-299">
          <mxGeometry x="120" width="60" height="40" as="geometry" />
        </mxCell>
        <mxCell id="2zpapT4hPdr0nbo9WkEl-303" value="" style="shape=partialRectangle;html=1;whiteSpace=wrap;collapsible=0;dropTarget=0;pointerEvents=0;fillColor=none;top=0;left=0;bottom=0;right=0;points=[[0,0.5],[1,0.5]];portConstraint=eastwest;" vertex="1" parent="2zpapT4hPdr0nbo9WkEl-298">
          <mxGeometry y="40" width="180" height="40" as="geometry" />
        </mxCell>
        <mxCell id="2zpapT4hPdr0nbo9WkEl-304" value="b001" style="shape=partialRectangle;html=1;whiteSpace=wrap;connectable=0;overflow=hidden;fillColor=none;top=0;left=0;bottom=0;right=0;" vertex="1" parent="2zpapT4hPdr0nbo9WkEl-303">
          <mxGeometry width="60" height="40" as="geometry" />
        </mxCell>
        <mxCell id="2zpapT4hPdr0nbo9WkEl-305" value="씨샵" style="shape=partialRectangle;html=1;whiteSpace=wrap;connectable=0;overflow=hidden;fillColor=none;top=0;left=0;bottom=0;right=0;" vertex="1" parent="2zpapT4hPdr0nbo9WkEl-303">
          <mxGeometry x="60" width="60" height="40" as="geometry" />
        </mxCell>
        <mxCell id="2zpapT4hPdr0nbo9WkEl-306" value="3" style="shape=partialRectangle;html=1;whiteSpace=wrap;connectable=0;overflow=hidden;fillColor=none;top=0;left=0;bottom=0;right=0;" vertex="1" parent="2zpapT4hPdr0nbo9WkEl-303">
          <mxGeometry x="120" width="60" height="40" as="geometry" />
        </mxCell>
        <mxCell id="2zpapT4hPdr0nbo9WkEl-307" value="" style="shape=partialRectangle;html=1;whiteSpace=wrap;collapsible=0;dropTarget=0;pointerEvents=0;fillColor=none;top=0;left=0;bottom=0;right=0;points=[[0,0.5],[1,0.5]];portConstraint=eastwest;" vertex="1" parent="2zpapT4hPdr0nbo9WkEl-298">
          <mxGeometry y="80" width="180" height="40" as="geometry" />
        </mxCell>
        <mxCell id="2zpapT4hPdr0nbo9WkEl-308" value="b002" style="shape=partialRectangle;html=1;whiteSpace=wrap;connectable=0;overflow=hidden;fillColor=none;top=0;left=0;bottom=0;right=0;" vertex="1" parent="2zpapT4hPdr0nbo9WkEl-307">
          <mxGeometry width="60" height="40" as="geometry" />
        </mxCell>
        <mxCell id="2zpapT4hPdr0nbo9WkEl-309" value="자바" style="shape=partialRectangle;html=1;whiteSpace=wrap;connectable=0;overflow=hidden;fillColor=none;top=0;left=0;bottom=0;right=0;" vertex="1" parent="2zpapT4hPdr0nbo9WkEl-307">
          <mxGeometry x="60" width="60" height="40" as="geometry" />
        </mxCell>
        <mxCell id="2zpapT4hPdr0nbo9WkEl-310" value="3" style="shape=partialRectangle;html=1;whiteSpace=wrap;connectable=0;overflow=hidden;fillColor=none;top=0;left=0;bottom=0;right=0;" vertex="1" parent="2zpapT4hPdr0nbo9WkEl-307">
          <mxGeometry x="120" width="60" height="40" as="geometry" />
        </mxCell>
        <mxCell id="2zpapT4hPdr0nbo9WkEl-311" value="과목" style="text;html=1;strokeColor=none;fillColor=none;align=center;verticalAlign=middle;whiteSpace=wrap;rounded=0;" vertex="1" parent="1">
          <mxGeometry x="-220" y="3650" width="40" height="20" as="geometry" />
        </mxCell>
        <mxCell id="2zpapT4hPdr0nbo9WkEl-325" value="" style="shape=table;html=1;whiteSpace=wrap;startSize=0;container=1;collapsible=0;childLayout=tableLayout;" vertex="1" parent="1">
          <mxGeometry x="-151" y="3520" width="60" height="120" as="geometry" />
        </mxCell>
        <mxCell id="2zpapT4hPdr0nbo9WkEl-326" value="" style="shape=partialRectangle;html=1;whiteSpace=wrap;collapsible=0;dropTarget=0;pointerEvents=0;fillColor=none;top=0;left=0;bottom=0;right=0;points=[[0,0.5],[1,0.5]];portConstraint=eastwest;" vertex="1" parent="2zpapT4hPdr0nbo9WkEl-325">
          <mxGeometry width="60" height="40" as="geometry" />
        </mxCell>
        <mxCell id="2zpapT4hPdr0nbo9WkEl-327" value="교수번호" style="shape=partialRectangle;html=1;whiteSpace=wrap;connectable=0;overflow=hidden;fillColor=none;top=0;left=0;bottom=0;right=0;" vertex="1" parent="2zpapT4hPdr0nbo9WkEl-326">
          <mxGeometry width="60" height="40" as="geometry" />
        </mxCell>
        <mxCell id="2zpapT4hPdr0nbo9WkEl-328" value="" style="shape=partialRectangle;html=1;whiteSpace=wrap;collapsible=0;dropTarget=0;pointerEvents=0;fillColor=none;top=0;left=0;bottom=0;right=0;points=[[0,0.5],[1,0.5]];portConstraint=eastwest;" vertex="1" parent="2zpapT4hPdr0nbo9WkEl-325">
          <mxGeometry y="40" width="60" height="40" as="geometry" />
        </mxCell>
        <mxCell id="2zpapT4hPdr0nbo9WkEl-329" value="p001" style="shape=partialRectangle;html=1;whiteSpace=wrap;connectable=0;overflow=hidden;fillColor=none;top=0;left=0;bottom=0;right=0;" vertex="1" parent="2zpapT4hPdr0nbo9WkEl-328">
          <mxGeometry width="60" height="40" as="geometry" />
        </mxCell>
        <mxCell id="2zpapT4hPdr0nbo9WkEl-330" value="" style="shape=partialRectangle;html=1;whiteSpace=wrap;collapsible=0;dropTarget=0;pointerEvents=0;fillColor=none;top=0;left=0;bottom=0;right=0;points=[[0,0.5],[1,0.5]];portConstraint=eastwest;" vertex="1" parent="2zpapT4hPdr0nbo9WkEl-325">
          <mxGeometry y="80" width="60" height="40" as="geometry" />
        </mxCell>
        <mxCell id="2zpapT4hPdr0nbo9WkEl-331" value="p002" style="shape=partialRectangle;html=1;whiteSpace=wrap;connectable=0;overflow=hidden;fillColor=none;top=0;left=0;bottom=0;right=0;" vertex="1" parent="2zpapT4hPdr0nbo9WkEl-330">
          <mxGeometry width="60" height="40" as="geometry" />
        </mxCell>
        <mxCell id="2zpapT4hPdr0nbo9WkEl-332" style="edgeStyle=orthogonalEdgeStyle;rounded=0;orthogonalLoop=1;jettySize=auto;html=1;" edge="1" parent="1" source="2zpapT4hPdr0nbo9WkEl-285" target="2zpapT4hPdr0nbo9WkEl-326">
          <mxGeometry relative="1" as="geometry">
            <Array as="points">
              <mxPoint x="-530" y="3490" />
              <mxPoint x="-121" y="3490" />
            </Array>
          </mxGeometry>
        </mxCell>
        <mxCell id="2zpapT4hPdr0nbo9WkEl-333" value="pk" style="text;html=1;strokeColor=none;fillColor=none;align=center;verticalAlign=middle;whiteSpace=wrap;rounded=0;" vertex="1" parent="1">
          <mxGeometry x="-580" y="3487" width="40" height="20" as="geometry" />
        </mxCell>
        <mxCell id="2zpapT4hPdr0nbo9WkEl-334" value="fk" style="text;html=1;strokeColor=none;fillColor=none;align=center;verticalAlign=middle;whiteSpace=wrap;rounded=0;" vertex="1" parent="1">
          <mxGeometry x="-80" y="3530" width="40" height="20" as="geometry" />
        </mxCell>
        <mxCell id="2zpapT4hPdr0nbo9WkEl-335" value="erd-릴레이션스키마-릴레이션 인스턴스" style="text;html=1;strokeColor=none;fillColor=none;align=center;verticalAlign=middle;whiteSpace=wrap;rounded=0;" vertex="1" parent="1">
          <mxGeometry x="-610" y="3390" width="350" height="60" as="geometry" />
        </mxCell>
        <mxCell id="2zpapT4hPdr0nbo9WkEl-336" value="" style="shape=table;html=1;whiteSpace=wrap;startSize=0;container=1;collapsible=0;childLayout=tableLayout;" vertex="1" parent="1">
          <mxGeometry x="60" y="3520" width="180" height="40" as="geometry" />
        </mxCell>
        <mxCell id="2zpapT4hPdr0nbo9WkEl-337" value="" style="shape=partialRectangle;html=1;whiteSpace=wrap;collapsible=0;dropTarget=0;pointerEvents=0;fillColor=none;top=0;left=0;bottom=0;right=0;points=[[0,0.5],[1,0.5]];portConstraint=eastwest;" vertex="1" parent="2zpapT4hPdr0nbo9WkEl-336">
          <mxGeometry width="180" height="40" as="geometry" />
        </mxCell>
        <mxCell id="2zpapT4hPdr0nbo9WkEl-338" value="&lt;u&gt;교수번호&lt;/u&gt;" style="shape=partialRectangle;html=1;whiteSpace=wrap;connectable=0;overflow=hidden;fillColor=none;top=0;left=0;bottom=0;right=0;" vertex="1" parent="2zpapT4hPdr0nbo9WkEl-337">
          <mxGeometry width="60" height="40" as="geometry" />
        </mxCell>
        <mxCell id="2zpapT4hPdr0nbo9WkEl-339" value="이름" style="shape=partialRectangle;html=1;whiteSpace=wrap;connectable=0;overflow=hidden;fillColor=none;top=0;left=0;bottom=0;right=0;" vertex="1" parent="2zpapT4hPdr0nbo9WkEl-337">
          <mxGeometry x="60" width="60" height="40" as="geometry" />
        </mxCell>
        <mxCell id="2zpapT4hPdr0nbo9WkEl-340" value="학과" style="shape=partialRectangle;html=1;whiteSpace=wrap;connectable=0;overflow=hidden;fillColor=none;top=0;left=0;bottom=0;right=0;" vertex="1" parent="2zpapT4hPdr0nbo9WkEl-337">
          <mxGeometry x="120" width="60" height="40" as="geometry" />
        </mxCell>
        <mxCell id="2zpapT4hPdr0nbo9WkEl-341" value="교수" style="text;html=1;strokeColor=none;fillColor=none;align=center;verticalAlign=middle;whiteSpace=wrap;rounded=0;" vertex="1" parent="1">
          <mxGeometry x="130" y="3570" width="40" height="20" as="geometry" />
        </mxCell>
        <mxCell id="2zpapT4hPdr0nbo9WkEl-342" value="" style="shape=table;html=1;whiteSpace=wrap;startSize=0;container=1;collapsible=0;childLayout=tableLayout;" vertex="1" parent="1">
          <mxGeometry x="340" y="3520" width="180" height="40" as="geometry" />
        </mxCell>
        <mxCell id="2zpapT4hPdr0nbo9WkEl-343" value="" style="shape=partialRectangle;html=1;whiteSpace=wrap;collapsible=0;dropTarget=0;pointerEvents=0;fillColor=none;top=0;left=0;bottom=0;right=0;points=[[0,0.5],[1,0.5]];portConstraint=eastwest;" vertex="1" parent="2zpapT4hPdr0nbo9WkEl-342">
          <mxGeometry width="180" height="40" as="geometry" />
        </mxCell>
        <mxCell id="2zpapT4hPdr0nbo9WkEl-344" value="&lt;u&gt;학번&lt;/u&gt;" style="shape=partialRectangle;html=1;whiteSpace=wrap;connectable=0;overflow=hidden;fillColor=none;top=0;left=0;bottom=0;right=0;" vertex="1" parent="2zpapT4hPdr0nbo9WkEl-343">
          <mxGeometry width="60" height="40" as="geometry" />
        </mxCell>
        <mxCell id="2zpapT4hPdr0nbo9WkEl-345" value="이름" style="shape=partialRectangle;html=1;whiteSpace=wrap;connectable=0;overflow=hidden;fillColor=none;top=0;left=0;bottom=0;right=0;" vertex="1" parent="2zpapT4hPdr0nbo9WkEl-343">
          <mxGeometry x="60" width="60" height="40" as="geometry" />
        </mxCell>
        <mxCell id="2zpapT4hPdr0nbo9WkEl-346" value="학과" style="shape=partialRectangle;html=1;whiteSpace=wrap;connectable=0;overflow=hidden;fillColor=none;top=0;left=0;bottom=0;right=0;" vertex="1" parent="2zpapT4hPdr0nbo9WkEl-343">
          <mxGeometry x="120" width="60" height="40" as="geometry" />
        </mxCell>
        <mxCell id="2zpapT4hPdr0nbo9WkEl-347" value="학생" style="text;html=1;strokeColor=none;fillColor=none;align=center;verticalAlign=middle;whiteSpace=wrap;rounded=0;" vertex="1" parent="1">
          <mxGeometry x="410" y="3570" width="40" height="20" as="geometry" />
        </mxCell>
        <mxCell id="2zpapT4hPdr0nbo9WkEl-348" value="" style="shape=table;html=1;whiteSpace=wrap;startSize=0;container=1;collapsible=0;childLayout=tableLayout;" vertex="1" parent="1">
          <mxGeometry x="520" y="3520" width="60" height="40" as="geometry" />
        </mxCell>
        <mxCell id="2zpapT4hPdr0nbo9WkEl-349" value="" style="shape=partialRectangle;html=1;whiteSpace=wrap;collapsible=0;dropTarget=0;pointerEvents=0;fillColor=none;top=0;left=0;bottom=0;right=0;points=[[0,0.5],[1,0.5]];portConstraint=eastwest;" vertex="1" parent="2zpapT4hPdr0nbo9WkEl-348">
          <mxGeometry width="60" height="40" as="geometry" />
        </mxCell>
        <mxCell id="2zpapT4hPdr0nbo9WkEl-350" value="교수번호" style="shape=partialRectangle;html=1;whiteSpace=wrap;connectable=0;overflow=hidden;fillColor=none;top=0;left=0;bottom=0;right=0;" vertex="1" parent="2zpapT4hPdr0nbo9WkEl-349">
          <mxGeometry width="60" height="40" as="geometry" />
        </mxCell>
        <mxCell id="2zpapT4hPdr0nbo9WkEl-351" style="edgeStyle=orthogonalEdgeStyle;rounded=0;orthogonalLoop=1;jettySize=auto;html=1;entryX=0.65;entryY=0.025;entryDx=0;entryDy=0;entryPerimeter=0;" edge="1" parent="1" source="2zpapT4hPdr0nbo9WkEl-337" target="2zpapT4hPdr0nbo9WkEl-349">
          <mxGeometry relative="1" as="geometry">
            <Array as="points">
              <mxPoint x="90" y="3500" />
              <mxPoint x="559" y="3500" />
            </Array>
          </mxGeometry>
        </mxCell>
        <mxCell id="2zpapT4hPdr0nbo9WkEl-361" value="" style="shape=table;html=1;whiteSpace=wrap;startSize=0;container=1;collapsible=0;childLayout=tableLayout;" vertex="1" parent="1">
          <mxGeometry x="70" y="3640" width="180" height="120" as="geometry" />
        </mxCell>
        <mxCell id="2zpapT4hPdr0nbo9WkEl-362" value="" style="shape=partialRectangle;html=1;whiteSpace=wrap;collapsible=0;dropTarget=0;pointerEvents=0;fillColor=none;top=0;left=0;bottom=0;right=0;points=[[0,0.5],[1,0.5]];portConstraint=eastwest;" vertex="1" parent="2zpapT4hPdr0nbo9WkEl-361">
          <mxGeometry width="180" height="40" as="geometry" />
        </mxCell>
        <mxCell id="2zpapT4hPdr0nbo9WkEl-363" value="&lt;u&gt;교수번호&lt;/u&gt;" style="shape=partialRectangle;html=1;whiteSpace=wrap;connectable=0;overflow=hidden;fillColor=none;top=0;left=0;bottom=0;right=0;" vertex="1" parent="2zpapT4hPdr0nbo9WkEl-362">
          <mxGeometry width="60" height="40" as="geometry" />
        </mxCell>
        <mxCell id="2zpapT4hPdr0nbo9WkEl-364" value="이름" style="shape=partialRectangle;html=1;whiteSpace=wrap;connectable=0;overflow=hidden;fillColor=none;top=0;left=0;bottom=0;right=0;" vertex="1" parent="2zpapT4hPdr0nbo9WkEl-362">
          <mxGeometry x="60" width="60" height="40" as="geometry" />
        </mxCell>
        <mxCell id="2zpapT4hPdr0nbo9WkEl-365" value="학과" style="shape=partialRectangle;html=1;whiteSpace=wrap;connectable=0;overflow=hidden;fillColor=none;top=0;left=0;bottom=0;right=0;" vertex="1" parent="2zpapT4hPdr0nbo9WkEl-362">
          <mxGeometry x="120" width="60" height="40" as="geometry" />
        </mxCell>
        <mxCell id="2zpapT4hPdr0nbo9WkEl-366" value="" style="shape=partialRectangle;html=1;whiteSpace=wrap;collapsible=0;dropTarget=0;pointerEvents=0;fillColor=none;top=0;left=0;bottom=0;right=0;points=[[0,0.5],[1,0.5]];portConstraint=eastwest;" vertex="1" parent="2zpapT4hPdr0nbo9WkEl-361">
          <mxGeometry y="40" width="180" height="40" as="geometry" />
        </mxCell>
        <mxCell id="2zpapT4hPdr0nbo9WkEl-367" value="1" style="shape=partialRectangle;html=1;whiteSpace=wrap;connectable=0;overflow=hidden;fillColor=none;top=0;left=0;bottom=0;right=0;" vertex="1" parent="2zpapT4hPdr0nbo9WkEl-366">
          <mxGeometry width="60" height="40" as="geometry" />
        </mxCell>
        <mxCell id="2zpapT4hPdr0nbo9WkEl-368" value="홍길동" style="shape=partialRectangle;html=1;whiteSpace=wrap;connectable=0;overflow=hidden;fillColor=none;top=0;left=0;bottom=0;right=0;" vertex="1" parent="2zpapT4hPdr0nbo9WkEl-366">
          <mxGeometry x="60" width="60" height="40" as="geometry" />
        </mxCell>
        <mxCell id="2zpapT4hPdr0nbo9WkEl-369" value="파이썬" style="shape=partialRectangle;html=1;whiteSpace=wrap;connectable=0;overflow=hidden;fillColor=none;top=0;left=0;bottom=0;right=0;" vertex="1" parent="2zpapT4hPdr0nbo9WkEl-366">
          <mxGeometry x="120" width="60" height="40" as="geometry" />
        </mxCell>
        <mxCell id="2zpapT4hPdr0nbo9WkEl-370" value="" style="shape=partialRectangle;html=1;whiteSpace=wrap;collapsible=0;dropTarget=0;pointerEvents=0;fillColor=none;top=0;left=0;bottom=0;right=0;points=[[0,0.5],[1,0.5]];portConstraint=eastwest;" vertex="1" parent="2zpapT4hPdr0nbo9WkEl-361">
          <mxGeometry y="80" width="180" height="40" as="geometry" />
        </mxCell>
        <mxCell id="2zpapT4hPdr0nbo9WkEl-371" value="2" style="shape=partialRectangle;html=1;whiteSpace=wrap;connectable=0;overflow=hidden;fillColor=none;top=0;left=0;bottom=0;right=0;" vertex="1" parent="2zpapT4hPdr0nbo9WkEl-370">
          <mxGeometry width="60" height="40" as="geometry" />
        </mxCell>
        <mxCell id="2zpapT4hPdr0nbo9WkEl-372" value="유관순" style="shape=partialRectangle;html=1;whiteSpace=wrap;connectable=0;overflow=hidden;fillColor=none;top=0;left=0;bottom=0;right=0;" vertex="1" parent="2zpapT4hPdr0nbo9WkEl-370">
          <mxGeometry x="60" width="60" height="40" as="geometry" />
        </mxCell>
        <mxCell id="2zpapT4hPdr0nbo9WkEl-373" value="자바" style="shape=partialRectangle;html=1;whiteSpace=wrap;connectable=0;overflow=hidden;fillColor=none;top=0;left=0;bottom=0;right=0;" vertex="1" parent="2zpapT4hPdr0nbo9WkEl-370">
          <mxGeometry x="120" width="60" height="40" as="geometry" />
        </mxCell>
        <mxCell id="2zpapT4hPdr0nbo9WkEl-374" value="교수" style="text;html=1;strokeColor=none;fillColor=none;align=center;verticalAlign=middle;whiteSpace=wrap;rounded=0;" vertex="1" parent="1">
          <mxGeometry x="140" y="3770" width="40" height="20" as="geometry" />
        </mxCell>
        <mxCell id="2zpapT4hPdr0nbo9WkEl-375" value="" style="shape=table;html=1;whiteSpace=wrap;startSize=0;container=1;collapsible=0;childLayout=tableLayout;" vertex="1" parent="1">
          <mxGeometry x="350.5" y="3640" width="180" height="120" as="geometry" />
        </mxCell>
        <mxCell id="2zpapT4hPdr0nbo9WkEl-376" value="" style="shape=partialRectangle;html=1;whiteSpace=wrap;collapsible=0;dropTarget=0;pointerEvents=0;fillColor=none;top=0;left=0;bottom=0;right=0;points=[[0,0.5],[1,0.5]];portConstraint=eastwest;" vertex="1" parent="2zpapT4hPdr0nbo9WkEl-375">
          <mxGeometry width="180" height="40" as="geometry" />
        </mxCell>
        <mxCell id="2zpapT4hPdr0nbo9WkEl-377" value="&lt;u&gt;학번&lt;/u&gt;" style="shape=partialRectangle;html=1;whiteSpace=wrap;connectable=0;overflow=hidden;fillColor=none;top=0;left=0;bottom=0;right=0;" vertex="1" parent="2zpapT4hPdr0nbo9WkEl-376">
          <mxGeometry width="60" height="40" as="geometry" />
        </mxCell>
        <mxCell id="2zpapT4hPdr0nbo9WkEl-378" value="이름" style="shape=partialRectangle;html=1;whiteSpace=wrap;connectable=0;overflow=hidden;fillColor=none;top=0;left=0;bottom=0;right=0;" vertex="1" parent="2zpapT4hPdr0nbo9WkEl-376">
          <mxGeometry x="60" width="60" height="40" as="geometry" />
        </mxCell>
        <mxCell id="2zpapT4hPdr0nbo9WkEl-379" value="학과" style="shape=partialRectangle;html=1;whiteSpace=wrap;connectable=0;overflow=hidden;fillColor=none;top=0;left=0;bottom=0;right=0;" vertex="1" parent="2zpapT4hPdr0nbo9WkEl-376">
          <mxGeometry x="120" width="60" height="40" as="geometry" />
        </mxCell>
        <mxCell id="2zpapT4hPdr0nbo9WkEl-380" value="" style="shape=partialRectangle;html=1;whiteSpace=wrap;collapsible=0;dropTarget=0;pointerEvents=0;fillColor=none;top=0;left=0;bottom=0;right=0;points=[[0,0.5],[1,0.5]];portConstraint=eastwest;" vertex="1" parent="2zpapT4hPdr0nbo9WkEl-375">
          <mxGeometry y="40" width="180" height="40" as="geometry" />
        </mxCell>
        <mxCell id="2zpapT4hPdr0nbo9WkEl-381" value="202101" style="shape=partialRectangle;html=1;whiteSpace=wrap;connectable=0;overflow=hidden;fillColor=none;top=0;left=0;bottom=0;right=0;" vertex="1" parent="2zpapT4hPdr0nbo9WkEl-380">
          <mxGeometry width="60" height="40" as="geometry" />
        </mxCell>
        <mxCell id="2zpapT4hPdr0nbo9WkEl-382" value="씨샵" style="shape=partialRectangle;html=1;whiteSpace=wrap;connectable=0;overflow=hidden;fillColor=none;top=0;left=0;bottom=0;right=0;" vertex="1" parent="2zpapT4hPdr0nbo9WkEl-380">
          <mxGeometry x="60" width="60" height="40" as="geometry" />
        </mxCell>
        <mxCell id="2zpapT4hPdr0nbo9WkEl-383" value="3" style="shape=partialRectangle;html=1;whiteSpace=wrap;connectable=0;overflow=hidden;fillColor=none;top=0;left=0;bottom=0;right=0;" vertex="1" parent="2zpapT4hPdr0nbo9WkEl-380">
          <mxGeometry x="120" width="60" height="40" as="geometry" />
        </mxCell>
        <mxCell id="2zpapT4hPdr0nbo9WkEl-384" value="" style="shape=partialRectangle;html=1;whiteSpace=wrap;collapsible=0;dropTarget=0;pointerEvents=0;fillColor=none;top=0;left=0;bottom=0;right=0;points=[[0,0.5],[1,0.5]];portConstraint=eastwest;" vertex="1" parent="2zpapT4hPdr0nbo9WkEl-375">
          <mxGeometry y="80" width="180" height="40" as="geometry" />
        </mxCell>
        <mxCell id="2zpapT4hPdr0nbo9WkEl-385" value="202102" style="shape=partialRectangle;html=1;whiteSpace=wrap;connectable=0;overflow=hidden;fillColor=none;top=0;left=0;bottom=0;right=0;" vertex="1" parent="2zpapT4hPdr0nbo9WkEl-384">
          <mxGeometry width="60" height="40" as="geometry" />
        </mxCell>
        <mxCell id="2zpapT4hPdr0nbo9WkEl-386" value="자바" style="shape=partialRectangle;html=1;whiteSpace=wrap;connectable=0;overflow=hidden;fillColor=none;top=0;left=0;bottom=0;right=0;" vertex="1" parent="2zpapT4hPdr0nbo9WkEl-384">
          <mxGeometry x="60" width="60" height="40" as="geometry" />
        </mxCell>
        <mxCell id="2zpapT4hPdr0nbo9WkEl-387" value="3" style="shape=partialRectangle;html=1;whiteSpace=wrap;connectable=0;overflow=hidden;fillColor=none;top=0;left=0;bottom=0;right=0;" vertex="1" parent="2zpapT4hPdr0nbo9WkEl-384">
          <mxGeometry x="120" width="60" height="40" as="geometry" />
        </mxCell>
        <mxCell id="2zpapT4hPdr0nbo9WkEl-388" value="학생" style="text;html=1;strokeColor=none;fillColor=none;align=center;verticalAlign=middle;whiteSpace=wrap;rounded=0;" vertex="1" parent="1">
          <mxGeometry x="460.5" y="3770" width="40" height="20" as="geometry" />
        </mxCell>
        <mxCell id="2zpapT4hPdr0nbo9WkEl-389" value="" style="shape=table;html=1;whiteSpace=wrap;startSize=0;container=1;collapsible=0;childLayout=tableLayout;" vertex="1" parent="1">
          <mxGeometry x="529.5" y="3640" width="60" height="120" as="geometry" />
        </mxCell>
        <mxCell id="2zpapT4hPdr0nbo9WkEl-390" value="" style="shape=partialRectangle;html=1;whiteSpace=wrap;collapsible=0;dropTarget=0;pointerEvents=0;fillColor=none;top=0;left=0;bottom=0;right=0;points=[[0,0.5],[1,0.5]];portConstraint=eastwest;" vertex="1" parent="2zpapT4hPdr0nbo9WkEl-389">
          <mxGeometry width="60" height="40" as="geometry" />
        </mxCell>
        <mxCell id="2zpapT4hPdr0nbo9WkEl-391" value="교수번호" style="shape=partialRectangle;html=1;whiteSpace=wrap;connectable=0;overflow=hidden;fillColor=none;top=0;left=0;bottom=0;right=0;" vertex="1" parent="2zpapT4hPdr0nbo9WkEl-390">
          <mxGeometry width="60" height="40" as="geometry" />
        </mxCell>
        <mxCell id="2zpapT4hPdr0nbo9WkEl-392" value="" style="shape=partialRectangle;html=1;whiteSpace=wrap;collapsible=0;dropTarget=0;pointerEvents=0;fillColor=none;top=0;left=0;bottom=0;right=0;points=[[0,0.5],[1,0.5]];portConstraint=eastwest;" vertex="1" parent="2zpapT4hPdr0nbo9WkEl-389">
          <mxGeometry y="40" width="60" height="40" as="geometry" />
        </mxCell>
        <mxCell id="2zpapT4hPdr0nbo9WkEl-393" value="p001" style="shape=partialRectangle;html=1;whiteSpace=wrap;connectable=0;overflow=hidden;fillColor=none;top=0;left=0;bottom=0;right=0;" vertex="1" parent="2zpapT4hPdr0nbo9WkEl-392">
          <mxGeometry width="60" height="40" as="geometry" />
        </mxCell>
        <mxCell id="2zpapT4hPdr0nbo9WkEl-394" value="" style="shape=partialRectangle;html=1;whiteSpace=wrap;collapsible=0;dropTarget=0;pointerEvents=0;fillColor=none;top=0;left=0;bottom=0;right=0;points=[[0,0.5],[1,0.5]];portConstraint=eastwest;" vertex="1" parent="2zpapT4hPdr0nbo9WkEl-389">
          <mxGeometry y="80" width="60" height="40" as="geometry" />
        </mxCell>
        <mxCell id="2zpapT4hPdr0nbo9WkEl-395" value="p002" style="shape=partialRectangle;html=1;whiteSpace=wrap;connectable=0;overflow=hidden;fillColor=none;top=0;left=0;bottom=0;right=0;" vertex="1" parent="2zpapT4hPdr0nbo9WkEl-394">
          <mxGeometry width="60" height="40" as="geometry" />
        </mxCell>
      </root>
    </mxGraphModel>
  </diagram>
</mxfile>
